<?xml version="1.0" encoding="UTF-8" standalone="no"?>
<!DOCTYPE svg PUBLIC "-//W3C//DTD SVG 1.1//EN"
 "http://www.w3.org/Graphics/SVG/1.1/DTD/svg11.dtd">
<!-- Generated by graphviz version 2.40.1 (20161225.0304)
 -->
<!-- Title: dependencies Pages: 1 -->
<svg width="504pt" height="284pt"
 viewBox="0.00 0.00 504.00 284.00" xmlns="http://www.w3.org/2000/svg" xmlns:xlink="http://www.w3.org/1999/xlink">
<g id="graph0" class="graph" transform="scale(1 1) rotate(0) translate(4 280)">
<title>dependencies</title>
<polygon fill="#ffffff" stroke="transparent" points="-4,4 -4,-280 500,-280 500,4 -4,4"/>
<text text-anchor="start" x="227.0091" y="-42.4" font-family="sans-serif" font-weight="bold" font-size="14.00" fill="#000000">Legend</text>
<polygon fill="#ffffb3" stroke="transparent" points="14,-10 14,-30 34,-30 34,-10 14,-10"/>
<text text-anchor="start" x="37.629" y="-15.4" font-family="sans-serif" font-size="14.00" fill="#000000"> &#160;Declarations</text>
<polygon fill="#8dd3c7" stroke="transparent" points="127,-10 127,-30 147,-30 147,-10 127,-10"/>
<text text-anchor="start" x="150.7251" y="-15.4" font-family="sans-serif" font-size="14.00" fill="#000000"> &#160;Module</text>
<polygon fill="#80b1d3" stroke="transparent" points="213,-10 213,-30 233,-30 233,-10 213,-10"/>
<text text-anchor="start" x="236.7812" y="-15.4" font-family="sans-serif" font-size="14.00" fill="#000000"> &#160;Bootstrap</text>
<polygon fill="#fdb462" stroke="transparent" points="310,-10 310,-30 330,-30 330,-10 310,-10"/>
<text text-anchor="start" x="333.6732" y="-15.4" font-family="sans-serif" font-size="14.00" fill="#000000"> &#160;Providers</text>
<polygon fill="#fb8072" stroke="transparent" points="406,-10 406,-30 426,-30 426,-10 406,-10"/>
<text text-anchor="start" x="429.7258" y="-15.4" font-family="sans-serif" font-size="14.00" fill="#000000"> &#160;Exports</text>
<g id="clust1" class="cluster">
<title>cluster_SharedModule</title>
<polygon fill="none" stroke="#000000" stroke-dasharray="1,5" points="57.5,-70 57.5,-268 438.5,-268 438.5,-70 57.5,-70"/>
</g>
<g id="clust3" class="cluster">
<title>cluster_SharedModule_imports</title>
<polygon fill="none" stroke="#000000" points="70.5,-78 70.5,-130 425.5,-130 425.5,-78 70.5,-78"/>
</g>
<g id="clust4" class="cluster">
<title>cluster_SharedModule_exports</title>
<polygon fill="none" stroke="#000000" points="65.5,-208 65.5,-260 430.5,-260 430.5,-208 65.5,-208"/>
</g>
<!-- MaterialModule -->
<g id="node1" class="node">
<title>MaterialModule</title>
<polygon fill="#8dd3c7" stroke="#000000" points="417.9706,-122 414.9706,-126 393.9706,-126 390.9706,-122 311.0294,-122 311.0294,-86 417.9706,-86 417.9706,-122"/>
<text text-anchor="middle" x="364.5" y="-99.8" font-family="Times,serif" font-size="14.00" fill="#000000">MaterialModule</text>
</g>
<!-- SharedModule -->
<g id="node4" class="node">
<title>SharedModule</title>
<polygon fill="#8dd3c7" stroke="#000000" points="289.9231,-187 286.9231,-191 265.9231,-191 262.9231,-187 191.0769,-187 191.0769,-151 289.9231,-151 289.9231,-187"/>
<text text-anchor="middle" x="240.5" y="-164.8" font-family="Times,serif" font-size="14.00" fill="#000000">SharedModule</text>
</g>
<!-- MaterialModule&#45;&gt;SharedModule -->
<g id="edge1" class="edge">
<title>MaterialModule&#45;&gt;SharedModule</title>
<path fill="none" stroke="#000000" d="M382.7451,-122.0225C382.7451,-139.3734 382.7451,-163 382.7451,-163 382.7451,-163 299.8512,-163 299.8512,-163"/>
<polygon fill="#000000" stroke="#000000" points="299.8513,-159.5001 289.8512,-163 299.8512,-166.5001 299.8513,-159.5001"/>
</g>
<!-- RoutingModule -->
<g id="node2" class="node">
<title>RoutingModule</title>
<polygon fill="#8dd3c7" stroke="#000000" points="292.6681,-122 289.6681,-126 268.6681,-126 265.6681,-122 188.3319,-122 188.3319,-86 292.6681,-86 292.6681,-122"/>
<text text-anchor="middle" x="240.5" y="-99.8" font-family="Times,serif" font-size="14.00" fill="#000000">RoutingModule</text>
</g>
<!-- RoutingModule&#45;&gt;SharedModule -->
<g id="edge2" class="edge">
<title>RoutingModule&#45;&gt;SharedModule</title>
<path fill="none" stroke="#000000" d="M240.5,-122.1061C240.5,-122.1061 240.5,-140.991 240.5,-140.991"/>
<polygon fill="#000000" stroke="#000000" points="237.0001,-140.9909 240.5,-150.991 244.0001,-140.991 237.0001,-140.9909"/>
</g>
<!-- ToolsModule -->
<g id="node3" class="node">
<title>ToolsModule</title>
<polygon fill="#8dd3c7" stroke="#000000" points="170.4387,-122 167.4387,-126 146.4387,-126 143.4387,-122 78.5613,-122 78.5613,-86 170.4387,-86 170.4387,-122"/>
<text text-anchor="middle" x="124.5" y="-99.8" font-family="Times,serif" font-size="14.00" fill="#000000">ToolsModule</text>
</g>
<!-- ToolsModule&#45;&gt;SharedModule -->
<g id="edge3" class="edge">
<title>ToolsModule&#45;&gt;SharedModule</title>
<path fill="none" stroke="#000000" d="M138.2396,-122.0225C138.2396,-139.3734 138.2396,-163 138.2396,-163 138.2396,-163 181.167,-163 181.167,-163"/>
<polygon fill="#000000" stroke="#000000" points="181.1671,-166.5001 191.167,-163 181.167,-159.5001 181.1671,-166.5001"/>
</g>
<!-- MaterialModule  -->
<g id="node5" class="node">
<title>MaterialModule </title>
<polygon fill="#fb8072" stroke="#000000" points="422.9716,-252 312.0284,-252 312.0284,-216 422.9716,-216 422.9716,-252"/>
<text text-anchor="middle" x="367.5" y="-229.8" font-family="Times,serif" font-size="14.00" fill="#000000">MaterialModule </text>
</g>
<!-- SharedModule&#45;&gt;MaterialModule  -->
<g id="edge4" class="edge">
<title>SharedModule&#45;&gt;MaterialModule </title>
<path fill="none" stroke="#000000" stroke-dasharray="5,2" d="M289.9306,-175C317.9678,-175 347.5049,-175 347.5049,-175 347.5049,-175 347.5049,-205.9775 347.5049,-205.9775"/>
<polygon fill="#000000" stroke="#000000" points="344.005,-205.9774 347.5049,-215.9775 351.005,-205.9775 344.005,-205.9774"/>
</g>
<!-- RoutingModule  -->
<g id="node6" class="node">
<title>RoutingModule </title>
<polygon fill="#fb8072" stroke="#000000" points="294.6677,-252 186.3323,-252 186.3323,-216 294.6677,-216 294.6677,-252"/>
<text text-anchor="middle" x="240.5" y="-229.8" font-family="Times,serif" font-size="14.00" fill="#000000">RoutingModule </text>
</g>
<!-- SharedModule&#45;&gt;RoutingModule  -->
<g id="edge5" class="edge">
<title>SharedModule&#45;&gt;RoutingModule </title>
<path fill="none" stroke="#000000" stroke-dasharray="5,2" d="M240.5,-187.1061C240.5,-187.1061 240.5,-205.991 240.5,-205.991"/>
<polygon fill="#000000" stroke="#000000" points="237.0001,-205.9909 240.5,-215.991 244.0001,-205.991 237.0001,-205.9909"/>
</g>
<!-- ToolsModule  -->
<g id="node7" class="node">
<title>ToolsModule </title>
<polygon fill="#fb8072" stroke="#000000" points="167.9376,-252 73.0624,-252 73.0624,-216 167.9376,-216 167.9376,-252"/>
<text text-anchor="middle" x="120.5" y="-229.8" font-family="Times,serif" font-size="14.00" fill="#000000">ToolsModule </text>
</g>
<!-- SharedModule&#45;&gt;ToolsModule  -->
<g id="edge6" class="edge">
<title>SharedModule&#45;&gt;ToolsModule </title>
<path fill="none" stroke="#000000" stroke-dasharray="5,2" d="M190.9764,-175C153.5238,-175 108.5104,-175 108.5104,-175 108.5104,-175 108.5104,-205.9775 108.5104,-205.9775"/>
<polygon fill="#000000" stroke="#000000" points="105.0105,-205.9774 108.5104,-215.9775 112.0105,-205.9775 105.0105,-205.9774"/>
</g>
</g>
</svg>
