<?xml version="1.0" encoding="UTF-8" standalone="no"?>
<!DOCTYPE svg PUBLIC "-//W3C//DTD SVG 1.1//EN"
 "http://www.w3.org/Graphics/SVG/1.1/DTD/svg11.dtd">
<!-- Generated by graphviz version 2.40.1 (20161225.0304)
 -->
<!-- Title: dependencies Pages: 1 -->
<svg width="504pt" height="211pt"
 viewBox="0.00 0.00 504.00 211.00" xmlns="http://www.w3.org/2000/svg" xmlns:xlink="http://www.w3.org/1999/xlink">
<g id="graph0" class="graph" transform="scale(1 1) rotate(0) translate(4 207)">
<title>dependencies</title>
<polygon fill="#ffffff" stroke="transparent" points="-4,4 -4,-207 500,-207 500,4 -4,4"/>
<text text-anchor="start" x="227.0091" y="-42.4" font-family="sans-serif" font-weight="bold" font-size="14.00" fill="#000000">Legend</text>
<polygon fill="#ffffb3" stroke="transparent" points="14,-10 14,-30 34,-30 34,-10 14,-10"/>
<text text-anchor="start" x="37.629" y="-15.4" font-family="sans-serif" font-size="14.00" fill="#000000"> &#160;Declarations</text>
<polygon fill="#8dd3c7" stroke="transparent" points="127,-10 127,-30 147,-30 147,-10 127,-10"/>
<text text-anchor="start" x="150.7251" y="-15.4" font-family="sans-serif" font-size="14.00" fill="#000000"> &#160;Module</text>
<polygon fill="#80b1d3" stroke="transparent" points="213,-10 213,-30 233,-30 233,-10 213,-10"/>
<text text-anchor="start" x="236.7812" y="-15.4" font-family="sans-serif" font-size="14.00" fill="#000000"> &#160;Bootstrap</text>
<polygon fill="#fdb462" stroke="transparent" points="310,-10 310,-30 330,-30 330,-10 310,-10"/>
<text text-anchor="start" x="333.6732" y="-15.4" font-family="sans-serif" font-size="14.00" fill="#000000"> &#160;Providers</text>
<polygon fill="#fb8072" stroke="transparent" points="406,-10 406,-30 426,-30 426,-10 406,-10"/>
<text text-anchor="start" x="429.7258" y="-15.4" font-family="sans-serif" font-size="14.00" fill="#000000"> &#160;Exports</text>
<g id="clust1" class="cluster">
<title>cluster_StoresModule</title>
<polygon fill="none" stroke="#000000" stroke-dasharray="1,5" points="91,-70 91,-195 405,-195 405,-70 91,-70"/>
</g>
<g id="clust6" class="cluster">
<title>cluster_StoresModule_providers</title>
<polygon fill="none" stroke="#000000" points="99,-78 99,-130 397,-130 397,-78 99,-78"/>
</g>
<!-- HeaderEffects -->
<g id="node1" class="node">
<title>HeaderEffects</title>
<ellipse fill="#fdb462" stroke="#000000" cx="323" cy="-104" rx="66.0069" ry="18"/>
<text text-anchor="middle" x="323" y="-99.8" font-family="Times,serif" font-size="14.00" fill="#000000">HeaderEffects</text>
</g>
<!-- StoresModule -->
<g id="node3" class="node">
<title>StoresModule</title>
<polygon fill="#8dd3c7" stroke="#000000" points="295.0439,-187 292.0439,-191 271.0439,-191 268.0439,-187 200.9561,-187 200.9561,-151 295.0439,-151 295.0439,-187"/>
<text text-anchor="middle" x="248" y="-164.8" font-family="Times,serif" font-size="14.00" fill="#000000">StoresModule</text>
</g>
<!-- HeaderEffects&#45;&gt;StoresModule -->
<g id="edge1" class="edge">
<title>HeaderEffects&#45;&gt;StoresModule</title>
<path fill="none" stroke="#000000" d="M276.0092,-116.8419C276.0092,-116.8419 276.0092,-140.5231 276.0092,-140.5231"/>
<polygon fill="#000000" stroke="#000000" points="272.5093,-140.523 276.0092,-150.5231 279.5093,-140.5231 272.5093,-140.523"/>
</g>
<!-- LayoutEffects -->
<g id="node2" class="node">
<title>LayoutEffects</title>
<ellipse fill="#fdb462" stroke="#000000" cx="173" cy="-104" rx="65.9677" ry="18"/>
<text text-anchor="middle" x="173" y="-99.8" font-family="Times,serif" font-size="14.00" fill="#000000">LayoutEffects</text>
</g>
<!-- LayoutEffects&#45;&gt;StoresModule -->
<g id="edge2" class="edge">
<title>LayoutEffects&#45;&gt;StoresModule</title>
<path fill="none" stroke="#000000" d="M219.731,-116.8419C219.731,-116.8419 219.731,-140.5231 219.731,-140.5231"/>
<polygon fill="#000000" stroke="#000000" points="216.2311,-140.523 219.731,-150.5231 223.2311,-140.5231 216.2311,-140.523"/>
</g>
</g>
</svg>
