<?xml version="1.0" encoding="UTF-8" standalone="no"?>
<!DOCTYPE svg PUBLIC "-//W3C//DTD SVG 1.1//EN"
 "http://www.w3.org/Graphics/SVG/1.1/DTD/svg11.dtd">
<!-- Generated by graphviz version 2.40.1 (20161225.0304)
 -->
<!-- Title: dependencies Pages: 1 -->
<svg width="794pt" height="284pt"
 viewBox="0.00 0.00 794.00 284.00" xmlns="http://www.w3.org/2000/svg" xmlns:xlink="http://www.w3.org/1999/xlink">
<g id="graph0" class="graph" transform="scale(1 1) rotate(0) translate(4 280)">
<title>dependencies</title>
<polygon fill="#ffffff" stroke="transparent" points="-4,4 -4,-280 790,-280 790,4 -4,4"/>
<text text-anchor="start" x="372.0091" y="-42.4" font-family="sans-serif" font-weight="bold" font-size="14.00" fill="#000000">Legend</text>
<polygon fill="#ffffb3" stroke="transparent" points="159,-10 159,-30 179,-30 179,-10 159,-10"/>
<text text-anchor="start" x="182.629" y="-15.4" font-family="sans-serif" font-size="14.00" fill="#000000"> &#160;Declarations</text>
<polygon fill="#8dd3c7" stroke="transparent" points="272,-10 272,-30 292,-30 292,-10 272,-10"/>
<text text-anchor="start" x="295.7251" y="-15.4" font-family="sans-serif" font-size="14.00" fill="#000000"> &#160;Module</text>
<polygon fill="#80b1d3" stroke="transparent" points="358,-10 358,-30 378,-30 378,-10 358,-10"/>
<text text-anchor="start" x="381.7812" y="-15.4" font-family="sans-serif" font-size="14.00" fill="#000000"> &#160;Bootstrap</text>
<polygon fill="#fdb462" stroke="transparent" points="455,-10 455,-30 475,-30 475,-10 455,-10"/>
<text text-anchor="start" x="478.6732" y="-15.4" font-family="sans-serif" font-size="14.00" fill="#000000"> &#160;Providers</text>
<polygon fill="#fb8072" stroke="transparent" points="551,-10 551,-30 571,-30 571,-10 551,-10"/>
<text text-anchor="start" x="574.7258" y="-15.4" font-family="sans-serif" font-size="14.00" fill="#000000"> &#160;Exports</text>
<g id="clust1" class="cluster">
<title>cluster_AppModule</title>
<polygon fill="none" stroke="#000000" stroke-dasharray="1,5" points="8,-70 8,-268 778,-268 778,-70 8,-70"/>
</g>
<g id="clust3" class="cluster">
<title>cluster_AppModule_imports</title>
<polygon fill="none" stroke="#000000" points="328,-78 328,-130 770,-130 770,-78 328,-78"/>
</g>
<g id="clust5" class="cluster">
<title>cluster_AppModule_bootstrap</title>
<polygon fill="none" stroke="#000000" points="378,-208 378,-260 502,-260 502,-208 378,-208"/>
</g>
<g id="clust6" class="cluster">
<title>cluster_AppModule_providers</title>
<polygon fill="none" stroke="#000000" points="16,-78 16,-130 320,-130 320,-78 16,-78"/>
</g>
<!-- ArchModule -->
<g id="node1" class="node">
<title>ArchModule</title>
<polygon fill="#8dd3c7" stroke="#000000" points="761.5328,-122 758.5328,-126 737.5328,-126 734.5328,-122 674.4672,-122 674.4672,-86 761.5328,-86 761.5328,-122"/>
<text text-anchor="middle" x="718" y="-99.8" font-family="Times,serif" font-size="14.00" fill="#000000">ArchModule</text>
</g>
<!-- AppModule -->
<g id="node5" class="node">
<title>AppModule</title>
<polygon fill="#8dd3c7" stroke="#000000" points="481.6571,-187 478.6571,-191 457.6571,-191 454.6571,-187 398.3429,-187 398.3429,-151 481.6571,-151 481.6571,-187"/>
<text text-anchor="middle" x="440" y="-164.8" font-family="Times,serif" font-size="14.00" fill="#000000">AppModule</text>
</g>
<!-- ArchModule&#45;&gt;AppModule -->
<g id="edge1" class="edge">
<title>ArchModule&#45;&gt;AppModule</title>
<path fill="none" stroke="#000000" d="M718,-122.2843C718,-143.3211 718,-175 718,-175 718,-175 491.9204,-175 491.9204,-175"/>
<polygon fill="#000000" stroke="#000000" points="491.9204,-171.5001 481.9204,-175 491.9204,-178.5001 491.9204,-171.5001"/>
</g>
<!-- PagesModule -->
<g id="node2" class="node">
<title>PagesModule</title>
<polygon fill="#8dd3c7" stroke="#000000" points="656.2064,-122 653.2064,-126 632.2064,-126 629.2064,-122 563.7936,-122 563.7936,-86 656.2064,-86 656.2064,-122"/>
<text text-anchor="middle" x="610" y="-99.8" font-family="Times,serif" font-size="14.00" fill="#000000">PagesModule</text>
</g>
<!-- PagesModule&#45;&gt;AppModule -->
<g id="edge2" class="edge">
<title>PagesModule&#45;&gt;AppModule</title>
<path fill="none" stroke="#000000" d="M610,-122.0225C610,-139.3734 610,-163 610,-163 610,-163 492.0225,-163 492.0225,-163"/>
<polygon fill="#000000" stroke="#000000" points="492.0225,-159.5001 482.0225,-163 492.0224,-166.5001 492.0225,-159.5001"/>
</g>
<!-- SharedModule -->
<g id="node3" class="node">
<title>SharedModule</title>
<polygon fill="#8dd3c7" stroke="#000000" points="546.4231,-122 543.4231,-126 522.4231,-126 519.4231,-122 447.5769,-122 447.5769,-86 546.4231,-86 546.4231,-122"/>
<text text-anchor="middle" x="497" y="-99.8" font-family="Times,serif" font-size="14.00" fill="#000000">SharedModule</text>
</g>
<!-- SharedModule&#45;&gt;AppModule -->
<g id="edge3" class="edge">
<title>SharedModule&#45;&gt;AppModule</title>
<path fill="none" stroke="#000000" d="M464.8086,-122.1061C464.8086,-122.1061 464.8086,-140.991 464.8086,-140.991"/>
<polygon fill="#000000" stroke="#000000" points="461.3086,-140.9909 464.8086,-150.991 468.3086,-140.991 461.3086,-140.9909"/>
</g>
<!-- StoresModule -->
<g id="node4" class="node">
<title>StoresModule</title>
<polygon fill="#8dd3c7" stroke="#000000" points="430.0439,-122 427.0439,-126 406.0439,-126 403.0439,-122 335.9561,-122 335.9561,-86 430.0439,-86 430.0439,-122"/>
<text text-anchor="middle" x="383" y="-99.8" font-family="Times,serif" font-size="14.00" fill="#000000">StoresModule</text>
</g>
<!-- StoresModule&#45;&gt;AppModule -->
<g id="edge4" class="edge">
<title>StoresModule&#45;&gt;AppModule</title>
<path fill="none" stroke="#000000" d="M414.2216,-122.1061C414.2216,-122.1061 414.2216,-140.991 414.2216,-140.991"/>
<polygon fill="#000000" stroke="#000000" points="410.7217,-140.9909 414.2216,-150.991 417.7217,-140.991 410.7217,-140.9909"/>
</g>
<!-- AppComponent  -->
<g id="node6" class="node">
<title>AppComponent </title>
<polygon fill="#80b1d3" stroke="#000000" points="494.439,-252 385.561,-252 385.561,-216 494.439,-216 494.439,-252"/>
<text text-anchor="middle" x="440" y="-229.8" font-family="Times,serif" font-size="14.00" fill="#000000">AppComponent </text>
</g>
<!-- AppModule&#45;&gt;AppComponent  -->
<g id="edge5" class="edge">
<title>AppModule&#45;&gt;AppComponent </title>
<path fill="none" stroke="#000000" stroke-dasharray="1,5" d="M440,-187.1061C440,-187.1061 440,-205.991 440,-205.991"/>
<polygon fill="#000000" stroke="#000000" points="436.5001,-205.9909 440,-215.991 443.5001,-205.991 436.5001,-205.9909"/>
</g>
<!-- HeaderService -->
<g id="node7" class="node">
<title>HeaderService</title>
<ellipse fill="#fdb462" stroke="#000000" cx="244" cy="-104" rx="67.7336" ry="18"/>
<text text-anchor="middle" x="244" y="-99.8" font-family="Times,serif" font-size="14.00" fill="#000000">HeaderService</text>
</g>
<!-- HeaderService&#45;&gt;AppModule -->
<g id="edge6" class="edge">
<title>HeaderService&#45;&gt;AppModule</title>
<path fill="none" stroke="#000000" d="M244,-122.0225C244,-139.3734 244,-163 244,-163 244,-163 387.9531,-163 387.9531,-163"/>
<polygon fill="#000000" stroke="#000000" points="387.9531,-166.5001 397.9531,-163 387.953,-159.5001 387.9531,-166.5001"/>
</g>
<!-- LayoutService -->
<g id="node8" class="node">
<title>LayoutService</title>
<ellipse fill="#fdb462" stroke="#000000" cx="91" cy="-104" rx="67.1946" ry="18"/>
<text text-anchor="middle" x="91" y="-99.8" font-family="Times,serif" font-size="14.00" fill="#000000">LayoutService</text>
</g>
<!-- LayoutService&#45;&gt;AppModule -->
<g id="edge7" class="edge">
<title>LayoutService&#45;&gt;AppModule</title>
<path fill="none" stroke="#000000" d="M91,-122.2843C91,-143.3211 91,-175 91,-175 91,-175 388.2491,-175 388.2491,-175"/>
<polygon fill="#000000" stroke="#000000" points="388.2491,-178.5001 398.2491,-175 388.2491,-171.5001 388.2491,-178.5001"/>
</g>
</g>
</svg>
