<?xml version="1.0" encoding="UTF-8" standalone="no"?>
<!DOCTYPE svg PUBLIC "-//W3C//DTD SVG 1.1//EN"
 "http://www.w3.org/Graphics/SVG/1.1/DTD/svg11.dtd">
<!-- Generated by graphviz version 2.40.1 (20161225.0304)
 -->
<!-- Title: dependencies Pages: 1 -->
<svg width="1011pt" height="284pt"
 viewBox="0.00 0.00 1011.00 284.00" xmlns="http://www.w3.org/2000/svg" xmlns:xlink="http://www.w3.org/1999/xlink">
<g id="graph0" class="graph" transform="scale(1 1) rotate(0) translate(4 280)">
<title>dependencies</title>
<polygon fill="#ffffff" stroke="transparent" points="-4,4 -4,-280 1007,-280 1007,4 -4,4"/>
<text text-anchor="start" x="480.5091" y="-42.4" font-family="sans-serif" font-weight="bold" font-size="14.00" fill="#000000">Legend</text>
<polygon fill="#ffffb3" stroke="transparent" points="267.5,-10 267.5,-30 287.5,-30 287.5,-10 267.5,-10"/>
<text text-anchor="start" x="291.129" y="-15.4" font-family="sans-serif" font-size="14.00" fill="#000000"> &#160;Declarations</text>
<polygon fill="#8dd3c7" stroke="transparent" points="380.5,-10 380.5,-30 400.5,-30 400.5,-10 380.5,-10"/>
<text text-anchor="start" x="404.2251" y="-15.4" font-family="sans-serif" font-size="14.00" fill="#000000"> &#160;Module</text>
<polygon fill="#80b1d3" stroke="transparent" points="466.5,-10 466.5,-30 486.5,-30 486.5,-10 466.5,-10"/>
<text text-anchor="start" x="490.2812" y="-15.4" font-family="sans-serif" font-size="14.00" fill="#000000"> &#160;Bootstrap</text>
<polygon fill="#fdb462" stroke="transparent" points="563.5,-10 563.5,-30 583.5,-30 583.5,-10 563.5,-10"/>
<text text-anchor="start" x="587.1732" y="-15.4" font-family="sans-serif" font-size="14.00" fill="#000000"> &#160;Providers</text>
<polygon fill="#fb8072" stroke="transparent" points="659.5,-10 659.5,-30 679.5,-30 679.5,-10 659.5,-10"/>
<text text-anchor="start" x="683.2258" y="-15.4" font-family="sans-serif" font-size="14.00" fill="#000000"> &#160;Exports</text>
<g id="clust1" class="cluster">
<title>cluster_ComponentsModule</title>
<polygon fill="none" stroke="#000000" stroke-dasharray="1,5" points="8,-70 8,-268 995,-268 995,-70 8,-70"/>
</g>
<g id="clust2" class="cluster">
<title>cluster_ComponentsModule_declarations</title>
<polygon fill="none" stroke="#000000" points="138,-78 138,-130 987,-130 987,-78 138,-78"/>
</g>
<g id="clust7" class="cluster">
<title>cluster_ComponentsModule_imports</title>
<polygon fill="none" stroke="#000000" points="16,-78 16,-130 130,-130 130,-78 16,-78"/>
</g>
<g id="clust8" class="cluster">
<title>cluster_ComponentsModule_exports</title>
<polygon fill="none" stroke="#000000" points="286,-208 286,-260 680,-260 680,-208 286,-208"/>
</g>
<!-- HeaderContainerComponent -->
<g id="node1" class="node">
<title>HeaderContainerComponent</title>
<polygon fill="#ffffb3" stroke="#000000" points="979.451,-122 802.549,-122 802.549,-86 979.451,-86 979.451,-122"/>
<text text-anchor="middle" x="891" y="-99.8" font-family="Times,serif" font-size="14.00" fill="#000000">HeaderContainerComponent</text>
</g>
<!-- ComponentsModule -->
<g id="node5" class="node">
<title>ComponentsModule</title>
<polygon fill="#8dd3c7" stroke="#000000" points="548.3272,-187 545.3272,-191 524.3272,-191 521.3272,-187 417.6728,-187 417.6728,-151 548.3272,-151 548.3272,-187"/>
<text text-anchor="middle" x="483" y="-164.8" font-family="Times,serif" font-size="14.00" fill="#000000">ComponentsModule</text>
</g>
<!-- HeaderContainerComponent&#45;&gt;ComponentsModule -->
<g id="edge1" class="edge">
<title>HeaderContainerComponent&#45;&gt;ComponentsModule</title>
<path fill="none" stroke="#000000" d="M891,-122.2843C891,-143.3211 891,-175 891,-175 891,-175 558.5523,-175 558.5523,-175"/>
<polygon fill="#000000" stroke="#000000" points="558.5523,-171.5001 548.5523,-175 558.5522,-178.5001 558.5523,-171.5001"/>
</g>
<!-- LayoutContainerComponent -->
<g id="node2" class="node">
<title>LayoutContainerComponent</title>
<polygon fill="#ffffb3" stroke="#000000" points="784.1979,-122 607.8021,-122 607.8021,-86 784.1979,-86 784.1979,-122"/>
<text text-anchor="middle" x="696" y="-99.8" font-family="Times,serif" font-size="14.00" fill="#000000">LayoutContainerComponent</text>
</g>
<!-- LayoutContainerComponent&#45;&gt;ComponentsModule -->
<g id="edge2" class="edge">
<title>LayoutContainerComponent&#45;&gt;ComponentsModule</title>
<path fill="none" stroke="#000000" d="M640.0633,-122.0225C640.0633,-139.3734 640.0633,-163 640.0633,-163 640.0633,-163 558.2445,-163 558.2445,-163"/>
<polygon fill="#000000" stroke="#000000" points="558.2445,-159.5001 548.2445,-163 558.2445,-166.5001 558.2445,-159.5001"/>
</g>
<!-- SimpleHeaderPresenterComponent -->
<g id="node3" class="node">
<title>SimpleHeaderPresenterComponent</title>
<polygon fill="#ffffb3" stroke="#000000" points="589.9958,-122 376.0042,-122 376.0042,-86 589.9958,-86 589.9958,-122"/>
<text text-anchor="middle" x="483" y="-99.8" font-family="Times,serif" font-size="14.00" fill="#000000">SimpleHeaderPresenterComponent</text>
</g>
<!-- SimpleHeaderPresenterComponent&#45;&gt;ComponentsModule -->
<g id="edge3" class="edge">
<title>SimpleHeaderPresenterComponent&#45;&gt;ComponentsModule</title>
<path fill="none" stroke="#000000" d="M483,-122.1061C483,-122.1061 483,-140.991 483,-140.991"/>
<polygon fill="#000000" stroke="#000000" points="479.5001,-140.9909 483,-150.991 486.5001,-140.991 479.5001,-140.9909"/>
</g>
<!-- SimpleLayoutPresenterComponent -->
<g id="node4" class="node">
<title>SimpleLayoutPresenterComponent</title>
<polygon fill="#ffffb3" stroke="#000000" points="358.2422,-122 145.7578,-122 145.7578,-86 358.2422,-86 358.2422,-122"/>
<text text-anchor="middle" x="252" y="-99.8" font-family="Times,serif" font-size="14.00" fill="#000000">SimpleLayoutPresenterComponent</text>
</g>
<!-- SimpleLayoutPresenterComponent&#45;&gt;ComponentsModule -->
<g id="edge4" class="edge">
<title>SimpleLayoutPresenterComponent&#45;&gt;ComponentsModule</title>
<path fill="none" stroke="#000000" d="M326.2611,-122.0225C326.2611,-139.3734 326.2611,-163 326.2611,-163 326.2611,-163 407.4367,-163 407.4367,-163"/>
<polygon fill="#000000" stroke="#000000" points="407.4368,-166.5001 417.4367,-163 407.4367,-159.5001 407.4368,-166.5001"/>
</g>
<!-- HeaderContainerComponent  -->
<g id="node7" class="node">
<title>HeaderContainerComponent </title>
<polygon fill="#fb8072" stroke="#000000" points="672.4516,-252 491.5484,-252 491.5484,-216 672.4516,-216 672.4516,-252"/>
<text text-anchor="middle" x="582" y="-229.8" font-family="Times,serif" font-size="14.00" fill="#000000">HeaderContainerComponent </text>
</g>
<!-- ComponentsModule&#45;&gt;HeaderContainerComponent  -->
<g id="edge6" class="edge">
<title>ComponentsModule&#45;&gt;HeaderContainerComponent </title>
<path fill="none" stroke="#000000" stroke-dasharray="5,2" d="M519.9689,-187.1061C519.9689,-187.1061 519.9689,-205.991 519.9689,-205.991"/>
<polygon fill="#000000" stroke="#000000" points="516.469,-205.9909 519.9689,-215.991 523.469,-205.991 516.469,-205.9909"/>
</g>
<!-- LayoutContainerComponent  -->
<g id="node8" class="node">
<title>LayoutContainerComponent </title>
<polygon fill="#fb8072" stroke="#000000" points="473.6981,-252 294.3019,-252 294.3019,-216 473.6981,-216 473.6981,-252"/>
<text text-anchor="middle" x="384" y="-229.8" font-family="Times,serif" font-size="14.00" fill="#000000">LayoutContainerComponent </text>
</g>
<!-- ComponentsModule&#45;&gt;LayoutContainerComponent  -->
<g id="edge7" class="edge">
<title>ComponentsModule&#45;&gt;LayoutContainerComponent </title>
<path fill="none" stroke="#000000" stroke-dasharray="5,2" d="M445.8428,-187.1061C445.8428,-187.1061 445.8428,-205.991 445.8428,-205.991"/>
<polygon fill="#000000" stroke="#000000" points="442.3428,-205.9909 445.8428,-215.991 449.3428,-205.991 442.3428,-205.9909"/>
</g>
<!-- SharedModule -->
<g id="node6" class="node">
<title>SharedModule</title>
<polygon fill="#8dd3c7" stroke="#000000" points="122.4231,-122 119.4231,-126 98.4231,-126 95.4231,-122 23.5769,-122 23.5769,-86 122.4231,-86 122.4231,-122"/>
<text text-anchor="middle" x="73" y="-99.8" font-family="Times,serif" font-size="14.00" fill="#000000">SharedModule</text>
</g>
<!-- SharedModule&#45;&gt;ComponentsModule -->
<g id="edge5" class="edge">
<title>SharedModule&#45;&gt;ComponentsModule</title>
<path fill="none" stroke="#000000" d="M73,-122.2843C73,-143.3211 73,-175 73,-175 73,-175 407.5809,-175 407.5809,-175"/>
<polygon fill="#000000" stroke="#000000" points="407.581,-178.5001 417.5809,-175 407.5809,-171.5001 407.581,-178.5001"/>
</g>
</g>
</svg>
