<?xml version="1.0" encoding="UTF-8" standalone="no"?>
<!DOCTYPE svg PUBLIC "-//W3C//DTD SVG 1.1//EN"
 "http://www.w3.org/Graphics/SVG/1.1/DTD/svg11.dtd">
<!-- Generated by graphviz version 2.40.1 (20161225.0304)
 -->
<!-- Title: dependencies Pages: 1 -->
<svg width="666pt" height="211pt"
 viewBox="0.00 0.00 666.00 211.00" xmlns="http://www.w3.org/2000/svg" xmlns:xlink="http://www.w3.org/1999/xlink">
<g id="graph0" class="graph" transform="scale(1 1) rotate(0) translate(4 207)">
<title>dependencies</title>
<polygon fill="#ffffff" stroke="transparent" points="-4,4 -4,-207 662,-207 662,4 -4,4"/>
<text text-anchor="start" x="308.0091" y="-42.4" font-family="sans-serif" font-weight="bold" font-size="14.00" fill="#000000">Legend</text>
<polygon fill="#ffffb3" stroke="transparent" points="95,-10 95,-30 115,-30 115,-10 95,-10"/>
<text text-anchor="start" x="118.629" y="-15.4" font-family="sans-serif" font-size="14.00" fill="#000000"> &#160;Declarations</text>
<polygon fill="#8dd3c7" stroke="transparent" points="208,-10 208,-30 228,-30 228,-10 208,-10"/>
<text text-anchor="start" x="231.7251" y="-15.4" font-family="sans-serif" font-size="14.00" fill="#000000"> &#160;Module</text>
<polygon fill="#80b1d3" stroke="transparent" points="294,-10 294,-30 314,-30 314,-10 294,-10"/>
<text text-anchor="start" x="317.7812" y="-15.4" font-family="sans-serif" font-size="14.00" fill="#000000"> &#160;Bootstrap</text>
<polygon fill="#fdb462" stroke="transparent" points="391,-10 391,-30 411,-30 411,-10 391,-10"/>
<text text-anchor="start" x="414.6732" y="-15.4" font-family="sans-serif" font-size="14.00" fill="#000000"> &#160;Providers</text>
<polygon fill="#fb8072" stroke="transparent" points="487,-10 487,-30 507,-30 507,-10 487,-10"/>
<text text-anchor="start" x="510.7258" y="-15.4" font-family="sans-serif" font-size="14.00" fill="#000000"> &#160;Exports</text>
<g id="clust1" class="cluster">
<title>cluster_PagesModule</title>
<polygon fill="none" stroke="#000000" stroke-dasharray="1,5" points="8,-70 8,-195 650,-195 650,-70 8,-70"/>
</g>
<g id="clust2" class="cluster">
<title>cluster_PagesModule_declarations</title>
<polygon fill="none" stroke="#000000" points="138,-78 138,-130 642,-130 642,-78 138,-78"/>
</g>
<g id="clust6" class="cluster">
<title>cluster_PagesModule_imports</title>
<polygon fill="none" stroke="#000000" points="16,-78 16,-130 130,-130 130,-78 16,-78"/>
</g>
<!-- AboutPageComponent -->
<g id="node1" class="node">
<title>AboutPageComponent</title>
<polygon fill="#ffffb3" stroke="#000000" points="633.5421,-122 490.4579,-122 490.4579,-86 633.5421,-86 633.5421,-122"/>
<text text-anchor="middle" x="562" y="-99.8" font-family="Times,serif" font-size="14.00" fill="#000000">AboutPageComponent</text>
</g>
<!-- PagesModule -->
<g id="node4" class="node">
<title>PagesModule</title>
<polygon fill="#8dd3c7" stroke="#000000" points="361.2064,-187 358.2064,-191 337.2064,-191 334.2064,-187 268.7936,-187 268.7936,-151 361.2064,-151 361.2064,-187"/>
<text text-anchor="middle" x="315" y="-164.8" font-family="Times,serif" font-size="14.00" fill="#000000">PagesModule</text>
</g>
<!-- AboutPageComponent&#45;&gt;PagesModule -->
<g id="edge1" class="edge">
<title>AboutPageComponent&#45;&gt;PagesModule</title>
<path fill="none" stroke="#000000" d="M562,-122.1061C562,-141.3391 562,-169 562,-169 562,-169 371.1691,-169 371.1691,-169"/>
<polygon fill="#000000" stroke="#000000" points="371.1691,-165.5001 361.1691,-169 371.169,-172.5001 371.1691,-165.5001"/>
</g>
<!-- HomePageComponent -->
<g id="node2" class="node">
<title>HomePageComponent</title>
<polygon fill="#ffffb3" stroke="#000000" points="472.2562,-122 329.7438,-122 329.7438,-86 472.2562,-86 472.2562,-122"/>
<text text-anchor="middle" x="401" y="-99.8" font-family="Times,serif" font-size="14.00" fill="#000000">HomePageComponent</text>
</g>
<!-- HomePageComponent&#45;&gt;PagesModule -->
<g id="edge2" class="edge">
<title>HomePageComponent&#45;&gt;PagesModule</title>
<path fill="none" stroke="#000000" d="M345.3626,-122.1061C345.3626,-122.1061 345.3626,-140.991 345.3626,-140.991"/>
<polygon fill="#000000" stroke="#000000" points="341.8626,-140.9909 345.3626,-150.991 348.8626,-140.991 341.8626,-140.9909"/>
</g>
<!-- NotFoundPageComponent -->
<g id="node3" class="node">
<title>NotFoundPageComponent</title>
<polygon fill="#ffffb3" stroke="#000000" points="311.8243,-122 146.1757,-122 146.1757,-86 311.8243,-86 311.8243,-122"/>
<text text-anchor="middle" x="229" y="-99.8" font-family="Times,serif" font-size="14.00" fill="#000000">NotFoundPageComponent</text>
</g>
<!-- NotFoundPageComponent&#45;&gt;PagesModule -->
<g id="edge3" class="edge">
<title>NotFoundPageComponent&#45;&gt;PagesModule</title>
<path fill="none" stroke="#000000" d="M290.2795,-122.1061C290.2795,-122.1061 290.2795,-140.991 290.2795,-140.991"/>
<polygon fill="#000000" stroke="#000000" points="286.7795,-140.9909 290.2795,-150.991 293.7795,-140.991 286.7795,-140.9909"/>
</g>
<!-- SharedModule -->
<g id="node5" class="node">
<title>SharedModule</title>
<polygon fill="#8dd3c7" stroke="#000000" points="122.4231,-122 119.4231,-126 98.4231,-126 95.4231,-122 23.5769,-122 23.5769,-86 122.4231,-86 122.4231,-122"/>
<text text-anchor="middle" x="73" y="-99.8" font-family="Times,serif" font-size="14.00" fill="#000000">SharedModule</text>
</g>
<!-- SharedModule&#45;&gt;PagesModule -->
<g id="edge4" class="edge">
<title>SharedModule&#45;&gt;PagesModule</title>
<path fill="none" stroke="#000000" d="M73,-122.1061C73,-141.3391 73,-169 73,-169 73,-169 258.6263,-169 258.6263,-169"/>
<polygon fill="#000000" stroke="#000000" points="258.6263,-172.5001 268.6263,-169 258.6263,-165.5001 258.6263,-172.5001"/>
</g>
</g>
</svg>
