<?xml version="1.0" encoding="UTF-8" standalone="no"?>
<!DOCTYPE svg PUBLIC "-//W3C//DTD SVG 1.1//EN"
 "http://www.w3.org/Graphics/SVG/1.1/DTD/svg11.dtd">
<!-- Generated by graphviz version 2.40.1 (20161225.0304)
 -->
<!-- Title: dependencies Pages: 1 -->
<svg width="2440pt" height="434pt"
 viewBox="0.00 0.00 2440.00 434.00" xmlns="http://www.w3.org/2000/svg" xmlns:xlink="http://www.w3.org/1999/xlink">
<g id="graph0" class="graph" transform="scale(1 1) rotate(0) translate(4 430)">
<title>dependencies</title>
<polygon fill="#ffffff" stroke="transparent" points="-4,4 -4,-430 2436,-430 2436,4 -4,4"/>
<text text-anchor="start" x="1195.0091" y="-42.4" font-family="sans-serif" font-weight="bold" font-size="14.00" fill="#000000">Legend</text>
<polygon fill="#ffffb3" stroke="transparent" points="982,-10 982,-30 1002,-30 1002,-10 982,-10"/>
<text text-anchor="start" x="1005.629" y="-15.4" font-family="sans-serif" font-size="14.00" fill="#000000"> &#160;Declarations</text>
<polygon fill="#8dd3c7" stroke="transparent" points="1095,-10 1095,-30 1115,-30 1115,-10 1095,-10"/>
<text text-anchor="start" x="1118.7251" y="-15.4" font-family="sans-serif" font-size="14.00" fill="#000000"> &#160;Module</text>
<polygon fill="#80b1d3" stroke="transparent" points="1181,-10 1181,-30 1201,-30 1201,-10 1181,-10"/>
<text text-anchor="start" x="1204.7812" y="-15.4" font-family="sans-serif" font-size="14.00" fill="#000000"> &#160;Bootstrap</text>
<polygon fill="#fdb462" stroke="transparent" points="1278,-10 1278,-30 1298,-30 1298,-10 1278,-10"/>
<text text-anchor="start" x="1301.6732" y="-15.4" font-family="sans-serif" font-size="14.00" fill="#000000"> &#160;Providers</text>
<polygon fill="#fb8072" stroke="transparent" points="1374,-10 1374,-30 1394,-30 1394,-10 1374,-10"/>
<text text-anchor="start" x="1397.7258" y="-15.4" font-family="sans-serif" font-size="14.00" fill="#000000"> &#160;Exports</text>
<g id="clust1" class="cluster">
<title>cluster_AppModule</title>
<polygon fill="none" stroke="#000000" stroke-dasharray="1,5" points="882,-146 882,-418 1672,-418 1672,-146 882,-146"/>
</g>
<g id="clust2" class="cluster">
<title>cluster_AppModule_declarations</title>
<polygon fill="none" stroke="#000000" points="1542,-222 1542,-274 1664,-274 1664,-222 1542,-222"/>
</g>
<g id="clust4" class="cluster">
<title>cluster_AppModule_imports</title>
<polygon fill="none" stroke="#000000" points="1202,-154 1202,-274 1534,-274 1534,-154 1202,-154"/>
</g>
<g id="clust6" class="cluster">
<title>cluster_AppModule_bootstrap</title>
<polygon fill="none" stroke="#000000" points="1281,-358 1281,-410 1405,-410 1405,-358 1281,-358"/>
</g>
<g id="clust7" class="cluster">
<title>cluster_AppModule_providers</title>
<polygon fill="none" stroke="#000000" points="890,-222 890,-274 1194,-274 1194,-222 890,-222"/>
</g>
<g id="clust14" class="cluster">
<title>cluster_ComponentsModule</title>
<polygon fill="none" stroke="#000000" stroke-dasharray="1,5" points="8,-146 8,-350 874,-350 874,-146 8,-146"/>
</g>
<g id="clust15" class="cluster">
<title>cluster_ComponentsModule_declarations</title>
<polygon fill="none" stroke="#000000" points="16,-154 16,-206 866,-206 866,-154 16,-154"/>
</g>
<g id="clust21" class="cluster">
<title>cluster_ComponentsModule_exports</title>
<polygon fill="none" stroke="#000000" points="323,-290 323,-342 717,-342 717,-290 323,-290"/>
</g>
<g id="clust42" class="cluster">
<title>cluster_SharedModule</title>
<polygon fill="none" stroke="#000000" stroke-dasharray="1,5" points="1680,-214 1680,-282 2424,-282 2424,-214 1680,-214"/>
</g>
<g id="clust44" class="cluster">
<title>cluster_SharedModule_imports</title>
<polygon fill="none" stroke="#000000" points="2061,-222 2061,-274 2416,-274 2416,-222 2061,-222"/>
</g>
<g id="clust45" class="cluster">
<title>cluster_SharedModule_exports</title>
<polygon fill="none" stroke="#000000" points="1688,-222 1688,-274 2053,-274 2053,-222 1688,-222"/>
</g>
<g id="clust48" class="cluster">
<title>cluster_StoresModule</title>
<polygon fill="none" stroke="#000000" stroke-dasharray="1,5" points="1206,-70 1206,-138 1520,-138 1520,-70 1206,-70"/>
</g>
<g id="clust53" class="cluster">
<title>cluster_StoresModule_providers</title>
<polygon fill="none" stroke="#000000" points="1214,-78 1214,-130 1512,-130 1512,-78 1214,-78"/>
</g>
<!-- AppComponent -->
<g id="node1" class="node">
<title>AppComponent</title>
<polygon fill="#ffffb3" stroke="#000000" points="1655.9399,-266 1550.0601,-266 1550.0601,-230 1655.9399,-230 1655.9399,-266"/>
<text text-anchor="middle" x="1603" y="-243.8" font-family="Times,serif" font-size="14.00" fill="#000000">AppComponent</text>
</g>
<!-- AppModule -->
<g id="node2" class="node">
<title>AppModule</title>
<polygon fill="#8dd3c7" stroke="#000000" points="1384.6571,-334 1381.6571,-338 1360.6571,-338 1357.6571,-334 1301.3429,-334 1301.3429,-298 1384.6571,-298 1384.6571,-334"/>
<text text-anchor="middle" x="1343" y="-311.8" font-family="Times,serif" font-size="14.00" fill="#000000">AppModule</text>
</g>
<!-- AppComponent&#45;&gt;AppModule -->
<g id="edge1" class="edge">
<title>AppComponent&#45;&gt;AppModule</title>
<path fill="none" stroke="#000000" d="M1550.0883,-254C1479.8498,-254 1364.5865,-254 1364.5865,-254 1364.5865,-254 1364.5865,-287.7333 1364.5865,-287.7333"/>
<polygon fill="#000000" stroke="#000000" points="1361.0866,-287.7333 1364.5865,-297.7333 1368.0866,-287.7333 1361.0866,-287.7333"/>
</g>
<!-- AppComponent  -->
<g id="node7" class="node">
<title>AppComponent </title>
<polygon fill="#80b1d3" stroke="#000000" points="1397.439,-402 1288.561,-402 1288.561,-366 1397.439,-366 1397.439,-402"/>
<text text-anchor="middle" x="1343" y="-379.8" font-family="Times,serif" font-size="14.00" fill="#000000">AppComponent </text>
</g>
<!-- AppModule&#45;&gt;AppComponent  -->
<g id="edge6" class="edge">
<title>AppModule&#45;&gt;AppComponent </title>
<path fill="none" stroke="#000000" stroke-dasharray="1,5" d="M1343,-334.2228C1343,-334.2228 1343,-355.7269 1343,-355.7269"/>
<polygon fill="#000000" stroke="#000000" points="1339.5001,-355.7269 1343,-365.7269 1346.5001,-355.727 1339.5001,-355.7269"/>
</g>
<!-- ArchModule -->
<g id="node3" class="node">
<title>ArchModule</title>
<polygon fill="#8dd3c7" stroke="#000000" points="1297.5328,-198 1294.5328,-202 1273.5328,-202 1270.5328,-198 1210.4672,-198 1210.4672,-162 1297.5328,-162 1297.5328,-198"/>
<text text-anchor="middle" x="1254" y="-175.8" font-family="Times,serif" font-size="14.00" fill="#000000">ArchModule</text>
</g>
<!-- ArchModule&#45;&gt;AppModule -->
<g id="edge2" class="edge">
<title>ArchModule&#45;&gt;AppModule</title>
<path fill="none" stroke="#000000" d="M1221.0656,-198.196C1221.0656,-233.3126 1221.0656,-307 1221.0656,-307 1221.0656,-307 1291.0371,-307 1291.0371,-307"/>
<polygon fill="#000000" stroke="#000000" points="1291.0371,-310.5001 1301.0371,-307 1291.037,-303.5001 1291.0371,-310.5001"/>
</g>
<!-- PagesModule -->
<g id="node4" class="node">
<title>PagesModule</title>
<polygon fill="#8dd3c7" stroke="#000000" points="1324.2064,-266 1321.2064,-270 1300.2064,-270 1297.2064,-266 1231.7936,-266 1231.7936,-230 1324.2064,-230 1324.2064,-266"/>
<text text-anchor="middle" x="1278" y="-243.8" font-family="Times,serif" font-size="14.00" fill="#000000">PagesModule</text>
</g>
<!-- PagesModule&#45;&gt;AppModule -->
<g id="edge3" class="edge">
<title>PagesModule&#45;&gt;AppModule</title>
<path fill="none" stroke="#000000" d="M1312.6375,-266.2228C1312.6375,-266.2228 1312.6375,-287.7269 1312.6375,-287.7269"/>
<polygon fill="#000000" stroke="#000000" points="1309.1375,-287.7269 1312.6375,-297.7269 1316.1375,-287.727 1309.1375,-287.7269"/>
</g>
<!-- SharedModule -->
<g id="node5" class="node">
<title>SharedModule</title>
<polygon fill="#8dd3c7" stroke="#000000" points="1526.4231,-198 1523.4231,-202 1502.4231,-202 1499.4231,-198 1427.5769,-198 1427.5769,-162 1526.4231,-162 1526.4231,-198"/>
<text text-anchor="middle" x="1477" y="-175.8" font-family="Times,serif" font-size="14.00" fill="#000000">SharedModule</text>
</g>
<!-- SharedModule&#45;&gt;AppModule -->
<g id="edge4" class="edge">
<title>SharedModule&#45;&gt;AppModule</title>
<path fill="none" stroke="#000000" d="M1501.6056,-198.0597C1501.6056,-235.0544 1501.6056,-316 1501.6056,-316 1501.6056,-316 1394.6717,-316 1394.6717,-316"/>
<polygon fill="#000000" stroke="#000000" points="1394.6718,-312.5001 1384.6717,-316 1394.6717,-319.5001 1394.6718,-312.5001"/>
</g>
<!-- SharedModule&#45;&gt;PagesModule -->
<g id="edge16" class="edge">
<title>SharedModule&#45;&gt;PagesModule</title>
<path fill="none" stroke="#000000" d="M1477,-198.2667C1477,-216.5552 1477,-242 1477,-242 1477,-242 1334.1548,-242 1334.1548,-242"/>
<polygon fill="#000000" stroke="#000000" points="1334.1548,-238.5001 1324.1548,-242 1334.1548,-245.5001 1334.1548,-238.5001"/>
</g>
<!-- ComponentsModule -->
<g id="node14" class="node">
<title>ComponentsModule</title>
<polygon fill="#8dd3c7" stroke="#000000" points="585.3272,-266 582.3272,-270 561.3272,-270 558.3272,-266 454.6728,-266 454.6728,-230 585.3272,-230 585.3272,-266"/>
<text text-anchor="middle" x="520" y="-243.8" font-family="Times,serif" font-size="14.00" fill="#000000">ComponentsModule</text>
</g>
<!-- SharedModule&#45;&gt;ComponentsModule -->
<g id="edge13" class="edge">
<title>SharedModule&#45;&gt;ComponentsModule</title>
<path fill="none" stroke="#000000" d="M1452.3945,-198.1944C1452.3945,-206.2782 1452.3945,-214 1452.3945,-214 1452.3945,-214 541.7211,-214 541.7211,-214 541.7211,-214 541.7211,-219.8056 541.7211,-219.8056"/>
<polygon fill="#000000" stroke="#000000" points="538.2212,-219.8055 541.7211,-229.8056 545.2212,-219.8056 538.2212,-219.8055"/>
</g>
<!-- MaterialModule  -->
<g id="node20" class="node">
<title>MaterialModule </title>
<polygon fill="#fb8072" stroke="#000000" points="2045.4716,-266 1934.5284,-266 1934.5284,-230 2045.4716,-230 2045.4716,-266"/>
<text text-anchor="middle" x="1990" y="-243.8" font-family="Times,serif" font-size="14.00" fill="#000000">MaterialModule </text>
</g>
<!-- SharedModule&#45;&gt;MaterialModule  -->
<g id="edge20" class="edge">
<title>SharedModule&#45;&gt;MaterialModule </title>
<path fill="none" stroke="#000000" stroke-dasharray="5,2" d="M1526.6547,-183C1655.398,-183 1990,-183 1990,-183 1990,-183 1990,-219.8939 1990,-219.8939"/>
<polygon fill="#000000" stroke="#000000" points="1986.5001,-219.8938 1990,-229.8939 1993.5001,-219.8939 1986.5001,-219.8938"/>
</g>
<!-- RoutingModule  -->
<g id="node21" class="node">
<title>RoutingModule </title>
<polygon fill="#fb8072" stroke="#000000" points="1917.1677,-266 1808.8323,-266 1808.8323,-230 1917.1677,-230 1917.1677,-266"/>
<text text-anchor="middle" x="1863" y="-243.8" font-family="Times,serif" font-size="14.00" fill="#000000">RoutingModule </text>
</g>
<!-- SharedModule&#45;&gt;RoutingModule  -->
<g id="edge21" class="edge">
<title>SharedModule&#45;&gt;RoutingModule </title>
<path fill="none" stroke="#000000" stroke-dasharray="5,2" d="M1526.2792,-188C1630.34,-188 1863,-188 1863,-188 1863,-188 1863,-219.998 1863,-219.998"/>
<polygon fill="#000000" stroke="#000000" points="1859.5001,-219.998 1863,-229.998 1866.5001,-219.9981 1859.5001,-219.998"/>
</g>
<!-- ToolsModule  -->
<g id="node22" class="node">
<title>ToolsModule </title>
<polygon fill="#fb8072" stroke="#000000" points="1790.4376,-266 1695.5624,-266 1695.5624,-230 1790.4376,-230 1790.4376,-266"/>
<text text-anchor="middle" x="1743" y="-243.8" font-family="Times,serif" font-size="14.00" fill="#000000">ToolsModule </text>
</g>
<!-- SharedModule&#45;&gt;ToolsModule  -->
<g id="edge22" class="edge">
<title>SharedModule&#45;&gt;ToolsModule </title>
<path fill="none" stroke="#000000" stroke-dasharray="5,2" d="M1526.4092,-193C1603.3344,-193 1743,-193 1743,-193 1743,-193 1743,-219.9909 1743,-219.9909"/>
<polygon fill="#000000" stroke="#000000" points="1739.5001,-219.9909 1743,-229.9909 1746.5001,-219.991 1739.5001,-219.9909"/>
</g>
<!-- StoresModule -->
<g id="node6" class="node">
<title>StoresModule</title>
<polygon fill="#8dd3c7" stroke="#000000" points="1410.0439,-198 1407.0439,-202 1386.0439,-202 1383.0439,-198 1315.9561,-198 1315.9561,-162 1410.0439,-162 1410.0439,-198"/>
<text text-anchor="middle" x="1363" y="-175.8" font-family="Times,serif" font-size="14.00" fill="#000000">StoresModule</text>
</g>
<!-- StoresModule&#45;&gt;AppModule -->
<g id="edge5" class="edge">
<title>StoresModule&#45;&gt;AppModule</title>
<path fill="none" stroke="#000000" d="M1344.3448,-198.0597C1344.3448,-198.0597 1344.3448,-287.8656 1344.3448,-287.8656"/>
<polygon fill="#000000" stroke="#000000" points="1340.8449,-287.8655 1344.3448,-297.8656 1347.8449,-287.8656 1340.8449,-287.8655"/>
</g>
<!-- HeaderService -->
<g id="node8" class="node">
<title>HeaderService</title>
<ellipse fill="#fdb462" stroke="#000000" cx="1118" cy="-248" rx="67.7336" ry="18"/>
<text text-anchor="middle" x="1118" y="-243.8" font-family="Times,serif" font-size="14.00" fill="#000000">HeaderService</text>
</g>
<!-- HeaderService&#45;&gt;AppModule -->
<g id="edge7" class="edge">
<title>HeaderService&#45;&gt;AppModule</title>
<path fill="none" stroke="#000000" d="M1118,-266.2228C1118,-286.3652 1118,-316 1118,-316 1118,-316 1291.2065,-316 1291.2065,-316"/>
<polygon fill="#000000" stroke="#000000" points="1291.2066,-319.5001 1301.2065,-316 1291.2065,-312.5001 1291.2066,-319.5001"/>
</g>
<!-- LayoutService -->
<g id="node9" class="node">
<title>LayoutService</title>
<ellipse fill="#fdb462" stroke="#000000" cx="965" cy="-248" rx="67.1946" ry="18"/>
<text text-anchor="middle" x="965" y="-243.8" font-family="Times,serif" font-size="14.00" fill="#000000">LayoutService</text>
</g>
<!-- LayoutService&#45;&gt;AppModule -->
<g id="edge8" class="edge">
<title>LayoutService&#45;&gt;AppModule</title>
<path fill="none" stroke="#000000" d="M965,-266.2479C965,-289.0179 965,-325 965,-325 965,-325 1291.1031,-325 1291.1031,-325"/>
<polygon fill="#000000" stroke="#000000" points="1291.1032,-328.5001 1301.1031,-325 1291.1031,-321.5001 1291.1032,-328.5001"/>
</g>
<!-- HeaderContainerComponent -->
<g id="node10" class="node">
<title>HeaderContainerComponent</title>
<polygon fill="#ffffb3" stroke="#000000" points="395.451,-198 218.549,-198 218.549,-162 395.451,-162 395.451,-198"/>
<text text-anchor="middle" x="307" y="-175.8" font-family="Times,serif" font-size="14.00" fill="#000000">HeaderContainerComponent</text>
</g>
<!-- HeaderContainerComponent&#45;&gt;ComponentsModule -->
<g id="edge9" class="edge">
<title>HeaderContainerComponent&#45;&gt;ComponentsModule</title>
<path fill="none" stroke="#000000" d="M363.125,-198.2667C363.125,-216.5552 363.125,-242 363.125,-242 363.125,-242 444.8337,-242 444.8337,-242"/>
<polygon fill="#000000" stroke="#000000" points="444.8338,-245.5001 454.8337,-242 444.8337,-238.5001 444.8338,-245.5001"/>
</g>
<!-- LayoutContainerComponent -->
<g id="node11" class="node">
<title>LayoutContainerComponent</title>
<polygon fill="#ffffb3" stroke="#000000" points="200.1979,-198 23.8021,-198 23.8021,-162 200.1979,-162 200.1979,-198"/>
<text text-anchor="middle" x="112" y="-175.8" font-family="Times,serif" font-size="14.00" fill="#000000">LayoutContainerComponent</text>
</g>
<!-- LayoutContainerComponent&#45;&gt;ComponentsModule -->
<g id="edge10" class="edge">
<title>LayoutContainerComponent&#45;&gt;ComponentsModule</title>
<path fill="none" stroke="#000000" d="M112,-198.2921C112,-220.2057 112,-254 112,-254 112,-254 444.4477,-254 444.4477,-254"/>
<polygon fill="#000000" stroke="#000000" points="444.4478,-257.5001 454.4477,-254 444.4477,-250.5001 444.4478,-257.5001"/>
</g>
<!-- SimpleHeaderPresenterComponent -->
<g id="node12" class="node">
<title>SimpleHeaderPresenterComponent</title>
<polygon fill="#ffffb3" stroke="#000000" points="857.9958,-198 644.0042,-198 644.0042,-162 857.9958,-162 857.9958,-198"/>
<text text-anchor="middle" x="751" y="-175.8" font-family="Times,serif" font-size="14.00" fill="#000000">SimpleHeaderPresenterComponent</text>
</g>
<!-- SimpleHeaderPresenterComponent&#45;&gt;ComponentsModule -->
<g id="edge11" class="edge">
<title>SimpleHeaderPresenterComponent&#45;&gt;ComponentsModule</title>
<path fill="none" stroke="#000000" d="M676.5507,-198.2228C676.5507,-218.3652 676.5507,-248 676.5507,-248 676.5507,-248 595.4845,-248 595.4845,-248"/>
<polygon fill="#000000" stroke="#000000" points="595.4845,-244.5001 585.4845,-248 595.4845,-251.5001 595.4845,-244.5001"/>
</g>
<!-- SimpleLayoutPresenterComponent -->
<g id="node13" class="node">
<title>SimpleLayoutPresenterComponent</title>
<polygon fill="#ffffb3" stroke="#000000" points="626.2422,-198 413.7578,-198 413.7578,-162 626.2422,-162 626.2422,-198"/>
<text text-anchor="middle" x="520" y="-175.8" font-family="Times,serif" font-size="14.00" fill="#000000">SimpleLayoutPresenterComponent</text>
</g>
<!-- SimpleLayoutPresenterComponent&#45;&gt;ComponentsModule -->
<g id="edge12" class="edge">
<title>SimpleLayoutPresenterComponent&#45;&gt;ComponentsModule</title>
<path fill="none" stroke="#000000" d="M498.2789,-198.2228C498.2789,-198.2228 498.2789,-219.7269 498.2789,-219.7269"/>
<polygon fill="#000000" stroke="#000000" points="494.779,-219.7269 498.2789,-229.7269 501.779,-219.727 494.779,-219.7269"/>
</g>
<!-- HeaderContainerComponent  -->
<g id="node15" class="node">
<title>HeaderContainerComponent </title>
<polygon fill="#fb8072" stroke="#000000" points="511.4516,-334 330.5484,-334 330.5484,-298 511.4516,-298 511.4516,-334"/>
<text text-anchor="middle" x="421" y="-311.8" font-family="Times,serif" font-size="14.00" fill="#000000">HeaderContainerComponent </text>
</g>
<!-- ComponentsModule&#45;&gt;HeaderContainerComponent  -->
<g id="edge14" class="edge">
<title>ComponentsModule&#45;&gt;HeaderContainerComponent </title>
<path fill="none" stroke="#000000" stroke-dasharray="5,2" d="M483.0311,-266.2228C483.0311,-266.2228 483.0311,-287.7269 483.0311,-287.7269"/>
<polygon fill="#000000" stroke="#000000" points="479.5311,-287.7269 483.0311,-297.7269 486.5311,-287.727 479.5311,-287.7269"/>
</g>
<!-- LayoutContainerComponent  -->
<g id="node16" class="node">
<title>LayoutContainerComponent </title>
<polygon fill="#fb8072" stroke="#000000" points="708.6981,-334 529.3019,-334 529.3019,-298 708.6981,-298 708.6981,-334"/>
<text text-anchor="middle" x="619" y="-311.8" font-family="Times,serif" font-size="14.00" fill="#000000">LayoutContainerComponent </text>
</g>
<!-- ComponentsModule&#45;&gt;LayoutContainerComponent  -->
<g id="edge15" class="edge">
<title>ComponentsModule&#45;&gt;LayoutContainerComponent </title>
<path fill="none" stroke="#000000" stroke-dasharray="5,2" d="M557.1573,-266.2228C557.1573,-266.2228 557.1573,-287.7269 557.1573,-287.7269"/>
<polygon fill="#000000" stroke="#000000" points="553.6573,-287.7269 557.1573,-297.7269 560.6573,-287.727 553.6573,-287.7269"/>
</g>
<!-- MaterialModule -->
<g id="node17" class="node">
<title>MaterialModule</title>
<polygon fill="#8dd3c7" stroke="#000000" points="2408.4706,-266 2405.4706,-270 2384.4706,-270 2381.4706,-266 2301.5294,-266 2301.5294,-230 2408.4706,-230 2408.4706,-266"/>
<text text-anchor="middle" x="2355" y="-243.8" font-family="Times,serif" font-size="14.00" fill="#000000">MaterialModule</text>
</g>
<!-- MaterialModule&#45;&gt;SharedModule -->
<g id="edge17" class="edge">
<title>MaterialModule&#45;&gt;SharedModule</title>
<path fill="none" stroke="#000000" d="M2355,-229.8468C2355,-206.2434 2355,-168 2355,-168 2355,-168 1536.4031,-168 1536.4031,-168"/>
<polygon fill="#000000" stroke="#000000" points="1536.4032,-164.5001 1526.4031,-168 1536.4031,-171.5001 1536.4032,-164.5001"/>
</g>
<!-- RoutingModule -->
<g id="node18" class="node">
<title>RoutingModule</title>
<polygon fill="#8dd3c7" stroke="#000000" points="2283.1681,-266 2280.1681,-270 2259.1681,-270 2256.1681,-266 2178.8319,-266 2178.8319,-230 2283.1681,-230 2283.1681,-266"/>
<text text-anchor="middle" x="2231" y="-243.8" font-family="Times,serif" font-size="14.00" fill="#000000">RoutingModule</text>
</g>
<!-- RoutingModule&#45;&gt;SharedModule -->
<g id="edge18" class="edge">
<title>RoutingModule&#45;&gt;SharedModule</title>
<path fill="none" stroke="#000000" d="M2231,-229.8446C2231,-207.6481 2231,-173 2231,-173 2231,-173 1536.472,-173 1536.472,-173"/>
<polygon fill="#000000" stroke="#000000" points="1536.4721,-169.5001 1526.472,-173 1536.472,-176.5001 1536.4721,-169.5001"/>
</g>
<!-- ToolsModule -->
<g id="node19" class="node">
<title>ToolsModule</title>
<polygon fill="#8dd3c7" stroke="#000000" points="2160.9387,-266 2157.9387,-270 2136.9387,-270 2133.9387,-266 2069.0613,-266 2069.0613,-230 2160.9387,-230 2160.9387,-266"/>
<text text-anchor="middle" x="2115" y="-243.8" font-family="Times,serif" font-size="14.00" fill="#000000">ToolsModule</text>
</g>
<!-- ToolsModule&#45;&gt;SharedModule -->
<g id="edge19" class="edge">
<title>ToolsModule&#45;&gt;SharedModule</title>
<path fill="none" stroke="#000000" d="M2115,-229.9733C2115,-209.2328 2115,-178 2115,-178 2115,-178 1536.2674,-178 1536.2674,-178"/>
<polygon fill="#000000" stroke="#000000" points="1536.2674,-174.5001 1526.2674,-178 1536.2673,-181.5001 1536.2674,-174.5001"/>
</g>
<!-- HeaderEffects -->
<g id="node23" class="node">
<title>HeaderEffects</title>
<ellipse fill="#fdb462" stroke="#000000" cx="1438" cy="-104" rx="66.0069" ry="18"/>
<text text-anchor="middle" x="1438" y="-99.8" font-family="Times,serif" font-size="14.00" fill="#000000">HeaderEffects</text>
</g>
<!-- HeaderEffects&#45;&gt;StoresModule -->
<g id="edge23" class="edge">
<title>HeaderEffects&#45;&gt;StoresModule</title>
<path fill="none" stroke="#000000" d="M1391.0092,-116.8924C1391.0092,-116.8924 1391.0092,-151.9077 1391.0092,-151.9077"/>
<polygon fill="#000000" stroke="#000000" points="1387.5093,-151.9077 1391.0092,-161.9077 1394.5093,-151.9078 1387.5093,-151.9077"/>
</g>
<!-- LayoutEffects -->
<g id="node24" class="node">
<title>LayoutEffects</title>
<ellipse fill="#fdb462" stroke="#000000" cx="1288" cy="-104" rx="65.9677" ry="18"/>
<text text-anchor="middle" x="1288" y="-99.8" font-family="Times,serif" font-size="14.00" fill="#000000">LayoutEffects</text>
</g>
<!-- LayoutEffects&#45;&gt;StoresModule -->
<g id="edge24" class="edge">
<title>LayoutEffects&#45;&gt;StoresModule</title>
<path fill="none" stroke="#000000" d="M1334.731,-116.8924C1334.731,-116.8924 1334.731,-151.9077 1334.731,-151.9077"/>
<polygon fill="#000000" stroke="#000000" points="1331.2311,-151.9077 1334.731,-161.9077 1338.2311,-151.9078 1331.2311,-151.9077"/>
</g>
</g>
</svg>
