<?xml version="1.0" encoding="UTF-8" standalone="no"?>
<!DOCTYPE svg PUBLIC "-//W3C//DTD SVG 1.1//EN"
 "http://www.w3.org/Graphics/SVG/1.1/DTD/svg11.dtd">
<!-- Generated by graphviz version 2.40.1 (20161225.0304)
 -->
<!-- Title: dependencies Pages: 1 -->
<svg width="2836pt" height="442pt"
 viewBox="0.00 0.00 2836.00 442.00" xmlns="http://www.w3.org/2000/svg" xmlns:xlink="http://www.w3.org/1999/xlink">
<g id="graph0" class="graph" transform="scale(1 1) rotate(0) translate(4 438)">
<title>dependencies</title>
<polygon fill="#ffffff" stroke="transparent" points="-4,4 -4,-438 2832,-438 2832,4 -4,4"/>
<text text-anchor="start" x="1393.0091" y="-42.4" font-family="sans-serif" font-weight="bold" font-size="14.00" fill="#000000">Legend</text>
<polygon fill="#ffffb3" stroke="transparent" points="1180,-10 1180,-30 1200,-30 1200,-10 1180,-10"/>
<text text-anchor="start" x="1203.629" y="-15.4" font-family="sans-serif" font-size="14.00" fill="#000000"> &#160;Declarations</text>
<polygon fill="#8dd3c7" stroke="transparent" points="1293,-10 1293,-30 1313,-30 1313,-10 1293,-10"/>
<text text-anchor="start" x="1316.7251" y="-15.4" font-family="sans-serif" font-size="14.00" fill="#000000"> &#160;Module</text>
<polygon fill="#80b1d3" stroke="transparent" points="1379,-10 1379,-30 1399,-30 1399,-10 1379,-10"/>
<text text-anchor="start" x="1402.7812" y="-15.4" font-family="sans-serif" font-size="14.00" fill="#000000"> &#160;Bootstrap</text>
<polygon fill="#fdb462" stroke="transparent" points="1476,-10 1476,-30 1496,-30 1496,-10 1476,-10"/>
<text text-anchor="start" x="1499.6732" y="-15.4" font-family="sans-serif" font-size="14.00" fill="#000000"> &#160;Providers</text>
<polygon fill="#fb8072" stroke="transparent" points="1572,-10 1572,-30 1592,-30 1592,-10 1572,-10"/>
<text text-anchor="start" x="1595.7258" y="-15.4" font-family="sans-serif" font-size="14.00" fill="#000000"> &#160;Exports</text>
<g id="clust1" class="cluster">
<title>cluster_AppModule</title>
<polygon fill="none" stroke="#000000" stroke-dasharray="1,5" points="535,-146 535,-426 1195,-426 1195,-146 535,-146"/>
</g>
<g id="clust3" class="cluster">
<title>cluster_AppModule_imports</title>
<polygon fill="none" stroke="#000000" points="855,-154 855,-282 1187,-282 1187,-154 855,-154"/>
</g>
<g id="clust5" class="cluster">
<title>cluster_AppModule_bootstrap</title>
<polygon fill="none" stroke="#000000" points="879,-366 879,-418 1003,-418 1003,-366 879,-366"/>
</g>
<g id="clust6" class="cluster">
<title>cluster_AppModule_providers</title>
<polygon fill="none" stroke="#000000" points="543,-230 543,-282 847,-282 847,-230 543,-230"/>
</g>
<g id="clust13" class="cluster">
<title>cluster_ComponentsModule</title>
<polygon fill="none" stroke="#000000" stroke-dasharray="1,5" points="1955,-146 1955,-358 2820,-358 2820,-146 1955,-146"/>
</g>
<g id="clust14" class="cluster">
<title>cluster_ComponentsModule_declarations</title>
<polygon fill="none" stroke="#000000" points="1963,-154 1963,-206 2812,-206 2812,-154 1963,-154"/>
</g>
<g id="clust20" class="cluster">
<title>cluster_ComponentsModule_exports</title>
<polygon fill="none" stroke="#000000" points="2111,-298 2111,-350 2505,-350 2505,-298 2111,-298"/>
</g>
<g id="clust29" class="cluster">
<title>cluster_PagesModule</title>
<polygon fill="none" stroke="#000000" stroke-dasharray="1,5" points="8,-146 8,-214 527,-214 527,-146 8,-146"/>
</g>
<g id="clust30" class="cluster">
<title>cluster_PagesModule_declarations</title>
<polygon fill="none" stroke="#000000" points="16,-154 16,-206 519,-206 519,-154 16,-154"/>
</g>
<g id="clust44" class="cluster">
<title>cluster_SharedModule</title>
<polygon fill="none" stroke="#000000" stroke-dasharray="1,5" points="1203,-222 1203,-290 1947,-290 1947,-222 1203,-222"/>
</g>
<g id="clust46" class="cluster">
<title>cluster_SharedModule_imports</title>
<polygon fill="none" stroke="#000000" points="1584,-230 1584,-282 1939,-282 1939,-230 1584,-230"/>
</g>
<g id="clust47" class="cluster">
<title>cluster_SharedModule_exports</title>
<polygon fill="none" stroke="#000000" points="1211,-230 1211,-282 1576,-282 1576,-230 1211,-230"/>
</g>
<g id="clust50" class="cluster">
<title>cluster_StoresModule</title>
<polygon fill="none" stroke="#000000" stroke-dasharray="1,5" points="859,-70 859,-138 1173,-138 1173,-70 859,-70"/>
</g>
<g id="clust55" class="cluster">
<title>cluster_StoresModule_providers</title>
<polygon fill="none" stroke="#000000" points="867,-78 867,-130 1165,-130 1165,-78 867,-78"/>
</g>
<!-- ArchModule -->
<g id="node1" class="node">
<title>ArchModule</title>
<polygon fill="#8dd3c7" stroke="#000000" points="950.5328,-198 947.5328,-202 926.5328,-202 923.5328,-198 863.4672,-198 863.4672,-162 950.5328,-162 950.5328,-198"/>
<text text-anchor="middle" x="907" y="-175.8" font-family="Times,serif" font-size="14.00" fill="#000000">ArchModule</text>
</g>
<!-- AppModule -->
<g id="node5" class="node">
<title>AppModule</title>
<polygon fill="#8dd3c7" stroke="#000000" points="982.6571,-342 979.6571,-346 958.6571,-346 955.6571,-342 899.3429,-342 899.3429,-306 982.6571,-306 982.6571,-342"/>
<text text-anchor="middle" x="941" y="-319.8" font-family="Times,serif" font-size="14.00" fill="#000000">AppModule</text>
</g>
<!-- ArchModule&#45;&gt;AppModule -->
<g id="edge1" class="edge">
<title>ArchModule&#45;&gt;AppModule</title>
<path fill="none" stroke="#000000" d="M950.5373,-180C957.2024,-180 961.9159,-180 961.9159,-180 961.9159,-180 961.9159,-295.7623 961.9159,-295.7623"/>
<polygon fill="#000000" stroke="#000000" points="958.4159,-295.7623 961.9159,-305.7623 965.4159,-295.7623 958.4159,-295.7623"/>
</g>
<!-- PagesModule -->
<g id="node2" class="node">
<title>PagesModule</title>
<polygon fill="#8dd3c7" stroke="#000000" points="955.2064,-274 952.2064,-278 931.2064,-278 928.2064,-274 862.7936,-274 862.7936,-238 955.2064,-238 955.2064,-274"/>
<text text-anchor="middle" x="909" y="-251.8" font-family="Times,serif" font-size="14.00" fill="#000000">PagesModule</text>
</g>
<!-- PagesModule&#45;&gt;AppModule -->
<g id="edge2" class="edge">
<title>PagesModule&#45;&gt;AppModule</title>
<path fill="none" stroke="#000000" d="M927.1375,-274.2228C927.1375,-274.2228 927.1375,-295.7269 927.1375,-295.7269"/>
<polygon fill="#000000" stroke="#000000" points="923.6375,-295.7269 927.1375,-305.7269 930.6375,-295.727 923.6375,-295.7269"/>
</g>
<!-- SharedModule -->
<g id="node3" class="node">
<title>SharedModule</title>
<polygon fill="#8dd3c7" stroke="#000000" points="1179.4231,-198 1176.4231,-202 1155.4231,-202 1152.4231,-198 1080.5769,-198 1080.5769,-162 1179.4231,-162 1179.4231,-198"/>
<text text-anchor="middle" x="1130" y="-175.8" font-family="Times,serif" font-size="14.00" fill="#000000">SharedModule</text>
</g>
<!-- SharedModule&#45;&gt;PagesModule -->
<g id="edge18" class="edge">
<title>SharedModule&#45;&gt;PagesModule</title>
<path fill="none" stroke="#000000" d="M1113.5963,-198.0109C1113.5963,-220.4852 1113.5963,-256 1113.5963,-256 1113.5963,-256 965.1705,-256 965.1705,-256"/>
<polygon fill="#000000" stroke="#000000" points="965.1705,-252.5001 955.1705,-256 965.1705,-259.5001 965.1705,-252.5001"/>
</g>
<!-- SharedModule&#45;&gt;AppModule -->
<g id="edge3" class="edge">
<title>SharedModule&#45;&gt;AppModule</title>
<path fill="none" stroke="#000000" d="M1146.4037,-198.2377C1146.4037,-236.9861 1146.4037,-324 1146.4037,-324 1146.4037,-324 993.0622,-324 993.0622,-324"/>
<polygon fill="#000000" stroke="#000000" points="993.0622,-320.5001 983.0622,-324 993.0621,-327.5001 993.0622,-320.5001"/>
</g>
<!-- ComponentsModule -->
<g id="node13" class="node">
<title>ComponentsModule</title>
<polygon fill="#8dd3c7" stroke="#000000" points="2373.3272,-274 2370.3272,-278 2349.3272,-278 2346.3272,-274 2242.6728,-274 2242.6728,-238 2373.3272,-238 2373.3272,-274"/>
<text text-anchor="middle" x="2308" y="-251.8" font-family="Times,serif" font-size="14.00" fill="#000000">ComponentsModule</text>
</g>
<!-- SharedModule&#45;&gt;ComponentsModule -->
<g id="edge12" class="edge">
<title>SharedModule&#45;&gt;ComponentsModule</title>
<path fill="none" stroke="#000000" d="M1179.5118,-167C1357.0252,-167 1951.0572,-167 1951.0572,-167 1951.0572,-167 1951.0572,-262 1951.0572,-262 1951.0572,-262 2232.5312,-262 2232.5312,-262"/>
<polygon fill="#000000" stroke="#000000" points="2232.5312,-265.5001 2242.5312,-262 2232.5311,-258.5001 2232.5312,-265.5001"/>
</g>
<!-- MaterialModule  -->
<g id="node22" class="node">
<title>MaterialModule </title>
<polygon fill="#fb8072" stroke="#000000" points="1568.4716,-274 1457.5284,-274 1457.5284,-238 1568.4716,-238 1568.4716,-274"/>
<text text-anchor="middle" x="1513" y="-251.8" font-family="Times,serif" font-size="14.00" fill="#000000">MaterialModule </text>
</g>
<!-- SharedModule&#45;&gt;MaterialModule  -->
<g id="edge22" class="edge">
<title>SharedModule&#45;&gt;MaterialModule </title>
<path fill="none" stroke="#000000" stroke-dasharray="5,2" d="M1179.2865,-185C1282.7287,-185 1513,-185 1513,-185 1513,-185 1513,-227.7157 1513,-227.7157"/>
<polygon fill="#000000" stroke="#000000" points="1509.5001,-227.7157 1513,-237.7157 1516.5001,-227.7158 1509.5001,-227.7157"/>
</g>
<!-- RoutingModule  -->
<g id="node23" class="node">
<title>RoutingModule </title>
<polygon fill="#fb8072" stroke="#000000" points="1440.1677,-274 1331.8323,-274 1331.8323,-238 1440.1677,-238 1440.1677,-274"/>
<text text-anchor="middle" x="1386" y="-251.8" font-family="Times,serif" font-size="14.00" fill="#000000">RoutingModule </text>
</g>
<!-- SharedModule&#45;&gt;RoutingModule  -->
<g id="edge23" class="edge">
<title>SharedModule&#45;&gt;RoutingModule </title>
<path fill="none" stroke="#000000" stroke-dasharray="5,2" d="M1179.3594,-189C1253.75,-189 1386,-189 1386,-189 1386,-189 1386,-227.692 1386,-227.692"/>
<polygon fill="#000000" stroke="#000000" points="1382.5001,-227.6919 1386,-237.692 1389.5001,-227.692 1382.5001,-227.6919"/>
</g>
<!-- ToolsModule  -->
<g id="node24" class="node">
<title>ToolsModule </title>
<polygon fill="#fb8072" stroke="#000000" points="1313.4376,-274 1218.5624,-274 1218.5624,-238 1313.4376,-238 1313.4376,-274"/>
<text text-anchor="middle" x="1266" y="-251.8" font-family="Times,serif" font-size="14.00" fill="#000000">ToolsModule </text>
</g>
<!-- SharedModule&#45;&gt;ToolsModule  -->
<g id="edge24" class="edge">
<title>SharedModule&#45;&gt;ToolsModule </title>
<path fill="none" stroke="#000000" stroke-dasharray="5,2" d="M1179.4838,-194C1218.3696,-194 1266,-194 1266,-194 1266,-194 1266,-227.7333 1266,-227.7333"/>
<polygon fill="#000000" stroke="#000000" points="1262.5001,-227.7333 1266,-237.7333 1269.5001,-227.7333 1262.5001,-227.7333"/>
</g>
<!-- StoresModule -->
<g id="node4" class="node">
<title>StoresModule</title>
<polygon fill="#8dd3c7" stroke="#000000" points="1063.0439,-198 1060.0439,-202 1039.0439,-202 1036.0439,-198 968.9561,-198 968.9561,-162 1063.0439,-162 1063.0439,-198"/>
<text text-anchor="middle" x="1016" y="-175.8" font-family="Times,serif" font-size="14.00" fill="#000000">StoresModule</text>
</g>
<!-- StoresModule&#45;&gt;AppModule -->
<g id="edge4" class="edge">
<title>StoresModule&#45;&gt;AppModule</title>
<path fill="none" stroke="#000000" d="M975.7784,-198.2377C975.7784,-198.2377 975.7784,-295.9104 975.7784,-295.9104"/>
<polygon fill="#000000" stroke="#000000" points="972.2785,-295.9103 975.7784,-305.9104 979.2785,-295.9104 972.2785,-295.9103"/>
</g>
<!-- AppComponent  -->
<g id="node6" class="node">
<title>AppComponent </title>
<polygon fill="#80b1d3" stroke="#000000" points="995.439,-410 886.561,-410 886.561,-374 995.439,-374 995.439,-410"/>
<text text-anchor="middle" x="941" y="-387.8" font-family="Times,serif" font-size="14.00" fill="#000000">AppComponent </text>
</g>
<!-- AppModule&#45;&gt;AppComponent  -->
<g id="edge5" class="edge">
<title>AppModule&#45;&gt;AppComponent </title>
<path fill="none" stroke="#000000" stroke-dasharray="1,5" d="M941,-342.2228C941,-342.2228 941,-363.7269 941,-363.7269"/>
<polygon fill="#000000" stroke="#000000" points="937.5001,-363.7269 941,-373.7269 944.5001,-363.727 937.5001,-363.7269"/>
</g>
<!-- HeaderService -->
<g id="node7" class="node">
<title>HeaderService</title>
<ellipse fill="#fdb462" stroke="#000000" cx="771" cy="-256" rx="67.7336" ry="18"/>
<text text-anchor="middle" x="771" y="-251.8" font-family="Times,serif" font-size="14.00" fill="#000000">HeaderService</text>
</g>
<!-- HeaderService&#45;&gt;AppModule -->
<g id="edge6" class="edge">
<title>HeaderService&#45;&gt;AppModule</title>
<path fill="none" stroke="#000000" d="M771,-274.2667C771,-292.5552 771,-318 771,-318 771,-318 888.9775,-318 888.9775,-318"/>
<polygon fill="#000000" stroke="#000000" points="888.9776,-321.5001 898.9775,-318 888.9775,-314.5001 888.9776,-321.5001"/>
</g>
<!-- LayoutService -->
<g id="node8" class="node">
<title>LayoutService</title>
<ellipse fill="#fdb462" stroke="#000000" cx="618" cy="-256" rx="67.1946" ry="18"/>
<text text-anchor="middle" x="618" y="-251.8" font-family="Times,serif" font-size="14.00" fill="#000000">LayoutService</text>
</g>
<!-- LayoutService&#45;&gt;AppModule -->
<g id="edge7" class="edge">
<title>LayoutService&#45;&gt;AppModule</title>
<path fill="none" stroke="#000000" d="M618,-274.2921C618,-296.2057 618,-330 618,-330 618,-330 889.1045,-330 889.1045,-330"/>
<polygon fill="#000000" stroke="#000000" points="889.1046,-333.5001 899.1045,-330 889.1045,-326.5001 889.1046,-333.5001"/>
</g>
<!-- HeaderContainerComponent -->
<g id="node9" class="node">
<title>HeaderContainerComponent</title>
<polygon fill="#ffffb3" stroke="#000000" points="2804.451,-198 2627.549,-198 2627.549,-162 2804.451,-162 2804.451,-198"/>
<text text-anchor="middle" x="2716" y="-175.8" font-family="Times,serif" font-size="14.00" fill="#000000">HeaderContainerComponent</text>
</g>
<!-- HeaderContainerComponent&#45;&gt;ComponentsModule -->
<g id="edge8" class="edge">
<title>HeaderContainerComponent&#45;&gt;ComponentsModule</title>
<path fill="none" stroke="#000000" d="M2716,-198.1985C2716,-222.3563 2716,-262 2716,-262 2716,-262 2383.5523,-262 2383.5523,-262"/>
<polygon fill="#000000" stroke="#000000" points="2383.5523,-258.5001 2373.5523,-262 2383.5522,-265.5001 2383.5523,-258.5001"/>
</g>
<!-- LayoutContainerComponent -->
<g id="node10" class="node">
<title>LayoutContainerComponent</title>
<polygon fill="#ffffb3" stroke="#000000" points="2609.1979,-198 2432.8021,-198 2432.8021,-162 2609.1979,-162 2609.1979,-198"/>
<text text-anchor="middle" x="2521" y="-175.8" font-family="Times,serif" font-size="14.00" fill="#000000">LayoutContainerComponent</text>
</g>
<!-- LayoutContainerComponent&#45;&gt;ComponentsModule -->
<g id="edge9" class="edge">
<title>LayoutContainerComponent&#45;&gt;ComponentsModule</title>
<path fill="none" stroke="#000000" d="M2464.875,-198.0267C2464.875,-218.7672 2464.875,-250 2464.875,-250 2464.875,-250 2383.1663,-250 2383.1663,-250"/>
<polygon fill="#000000" stroke="#000000" points="2383.1663,-246.5001 2373.1663,-250 2383.1662,-253.5001 2383.1663,-246.5001"/>
</g>
<!-- SimpleHeaderPresenterComponent -->
<g id="node11" class="node">
<title>SimpleHeaderPresenterComponent</title>
<polygon fill="#ffffb3" stroke="#000000" points="2414.9958,-198 2201.0042,-198 2201.0042,-162 2414.9958,-162 2414.9958,-198"/>
<text text-anchor="middle" x="2308" y="-175.8" font-family="Times,serif" font-size="14.00" fill="#000000">SimpleHeaderPresenterComponent</text>
</g>
<!-- SimpleHeaderPresenterComponent&#45;&gt;ComponentsModule -->
<g id="edge10" class="edge">
<title>SimpleHeaderPresenterComponent&#45;&gt;ComponentsModule</title>
<path fill="none" stroke="#000000" d="M2308,-198.0109C2308,-198.0109 2308,-227.855 2308,-227.855"/>
<polygon fill="#000000" stroke="#000000" points="2304.5001,-227.8549 2308,-237.855 2311.5001,-227.855 2304.5001,-227.8549"/>
</g>
<!-- SimpleLayoutPresenterComponent -->
<g id="node12" class="node">
<title>SimpleLayoutPresenterComponent</title>
<polygon fill="#ffffb3" stroke="#000000" points="2183.2422,-198 1970.7578,-198 1970.7578,-162 2183.2422,-162 2183.2422,-198"/>
<text text-anchor="middle" x="2077" y="-175.8" font-family="Times,serif" font-size="14.00" fill="#000000">SimpleLayoutPresenterComponent</text>
</g>
<!-- SimpleLayoutPresenterComponent&#45;&gt;ComponentsModule -->
<g id="edge11" class="edge">
<title>SimpleLayoutPresenterComponent&#45;&gt;ComponentsModule</title>
<path fill="none" stroke="#000000" d="M2151.0728,-198.0267C2151.0728,-218.7672 2151.0728,-250 2151.0728,-250 2151.0728,-250 2232.812,-250 2232.812,-250"/>
<polygon fill="#000000" stroke="#000000" points="2232.8121,-253.5001 2242.812,-250 2232.812,-246.5001 2232.8121,-253.5001"/>
</g>
<!-- HeaderContainerComponent  -->
<g id="node14" class="node">
<title>HeaderContainerComponent </title>
<polygon fill="#fb8072" stroke="#000000" points="2299.4516,-342 2118.5484,-342 2118.5484,-306 2299.4516,-306 2299.4516,-342"/>
<text text-anchor="middle" x="2209" y="-319.8" font-family="Times,serif" font-size="14.00" fill="#000000">HeaderContainerComponent </text>
</g>
<!-- ComponentsModule&#45;&gt;HeaderContainerComponent  -->
<g id="edge13" class="edge">
<title>ComponentsModule&#45;&gt;HeaderContainerComponent </title>
<path fill="none" stroke="#000000" stroke-dasharray="5,2" d="M2271.0311,-274.2228C2271.0311,-274.2228 2271.0311,-295.7269 2271.0311,-295.7269"/>
<polygon fill="#000000" stroke="#000000" points="2267.5311,-295.7269 2271.0311,-305.7269 2274.5311,-295.727 2267.5311,-295.7269"/>
</g>
<!-- LayoutContainerComponent  -->
<g id="node15" class="node">
<title>LayoutContainerComponent </title>
<polygon fill="#fb8072" stroke="#000000" points="2496.6981,-342 2317.3019,-342 2317.3019,-306 2496.6981,-306 2496.6981,-342"/>
<text text-anchor="middle" x="2407" y="-319.8" font-family="Times,serif" font-size="14.00" fill="#000000">LayoutContainerComponent </text>
</g>
<!-- ComponentsModule&#45;&gt;LayoutContainerComponent  -->
<g id="edge14" class="edge">
<title>ComponentsModule&#45;&gt;LayoutContainerComponent </title>
<path fill="none" stroke="#000000" stroke-dasharray="5,2" d="M2345.1573,-274.2228C2345.1573,-274.2228 2345.1573,-295.7269 2345.1573,-295.7269"/>
<polygon fill="#000000" stroke="#000000" points="2341.6573,-295.7269 2345.1573,-305.7269 2348.6573,-295.727 2341.6573,-295.7269"/>
</g>
<!-- AboutPageComponent -->
<g id="node16" class="node">
<title>AboutPageComponent</title>
<polygon fill="#ffffb3" stroke="#000000" points="167.5421,-198 24.4579,-198 24.4579,-162 167.5421,-162 167.5421,-198"/>
<text text-anchor="middle" x="96" y="-175.8" font-family="Times,serif" font-size="14.00" fill="#000000">AboutPageComponent</text>
</g>
<!-- AboutPageComponent&#45;&gt;PagesModule -->
<g id="edge15" class="edge">
<title>AboutPageComponent&#45;&gt;PagesModule</title>
<path fill="none" stroke="#000000" d="M96,-198.0439C96,-210.5633 96,-225 96,-225 96,-225 892.4114,-225 892.4114,-225 892.4114,-225 892.4114,-227.9672 892.4114,-227.9672"/>
<polygon fill="#000000" stroke="#000000" points="888.9115,-227.9671 892.4114,-237.9672 895.9115,-227.9672 888.9115,-227.9671"/>
</g>
<!-- HomePageComponent -->
<g id="node17" class="node">
<title>HomePageComponent</title>
<polygon fill="#ffffb3" stroke="#000000" points="511.2562,-198 368.7438,-198 368.7438,-162 511.2562,-162 511.2562,-198"/>
<text text-anchor="middle" x="440" y="-175.8" font-family="Times,serif" font-size="14.00" fill="#000000">HomePageComponent</text>
</g>
<!-- HomePageComponent&#45;&gt;PagesModule -->
<g id="edge16" class="edge">
<title>HomePageComponent&#45;&gt;PagesModule</title>
<path fill="none" stroke="#000000" d="M511.5701,-180C629.2905,-180 850.8818,-180 850.8818,-180 850.8818,-180 850.8818,-256 850.8818,-256 850.8818,-256 852.6429,-256 852.6429,-256"/>
<polygon fill="#000000" stroke="#000000" points="852.6429,-259.5001 862.6429,-256 852.6428,-252.5001 852.6429,-259.5001"/>
</g>
<!-- NotFoundPageComponent -->
<g id="node18" class="node">
<title>NotFoundPageComponent</title>
<polygon fill="#ffffb3" stroke="#000000" points="350.8243,-198 185.1757,-198 185.1757,-162 350.8243,-162 350.8243,-198"/>
<text text-anchor="middle" x="268" y="-175.8" font-family="Times,serif" font-size="14.00" fill="#000000">NotFoundPageComponent</text>
</g>
<!-- NotFoundPageComponent&#45;&gt;PagesModule -->
<g id="edge17" class="edge">
<title>NotFoundPageComponent&#45;&gt;PagesModule</title>
<path fill="none" stroke="#000000" d="M268,-198.2434C268,-205.4297 268,-212 268,-212 268,-212 921.5886,-212 921.5886,-212 921.5886,-212 921.5886,-227.8495 921.5886,-227.8495"/>
<polygon fill="#000000" stroke="#000000" points="918.0887,-227.8494 921.5886,-237.8495 925.0887,-227.8495 918.0887,-227.8494"/>
</g>
<!-- MaterialModule -->
<g id="node19" class="node">
<title>MaterialModule</title>
<polygon fill="#8dd3c7" stroke="#000000" points="1931.4706,-274 1928.4706,-278 1907.4706,-278 1904.4706,-274 1824.5294,-274 1824.5294,-238 1931.4706,-238 1931.4706,-274"/>
<text text-anchor="middle" x="1878" y="-251.8" font-family="Times,serif" font-size="14.00" fill="#000000">MaterialModule</text>
</g>
<!-- MaterialModule&#45;&gt;SharedModule -->
<g id="edge19" class="edge">
<title>MaterialModule&#45;&gt;SharedModule</title>
<path fill="none" stroke="#000000" d="M1878,-237.9737C1878,-213.0227 1878,-171 1878,-171 1878,-171 1189.3676,-171 1189.3676,-171"/>
<polygon fill="#000000" stroke="#000000" points="1189.3677,-167.5001 1179.3676,-171 1189.3676,-174.5001 1189.3677,-167.5001"/>
</g>
<!-- RoutingModule -->
<g id="node20" class="node">
<title>RoutingModule</title>
<polygon fill="#8dd3c7" stroke="#000000" points="1806.1681,-274 1803.1681,-278 1782.1681,-278 1779.1681,-274 1701.8319,-274 1701.8319,-238 1806.1681,-238 1806.1681,-274"/>
<text text-anchor="middle" x="1754" y="-251.8" font-family="Times,serif" font-size="14.00" fill="#000000">RoutingModule</text>
</g>
<!-- RoutingModule&#45;&gt;SharedModule -->
<g id="edge20" class="edge">
<title>RoutingModule&#45;&gt;SharedModule</title>
<path fill="none" stroke="#000000" d="M1754,-237.8468C1754,-214.2434 1754,-176 1754,-176 1754,-176 1189.2247,-176 1189.2247,-176"/>
<polygon fill="#000000" stroke="#000000" points="1189.2248,-172.5001 1179.2247,-176 1189.2247,-179.5001 1189.2248,-172.5001"/>
</g>
<!-- ToolsModule -->
<g id="node21" class="node">
<title>ToolsModule</title>
<polygon fill="#8dd3c7" stroke="#000000" points="1683.9387,-274 1680.9387,-278 1659.9387,-278 1656.9387,-274 1592.0613,-274 1592.0613,-238 1683.9387,-238 1683.9387,-274"/>
<text text-anchor="middle" x="1638" y="-251.8" font-family="Times,serif" font-size="14.00" fill="#000000">ToolsModule</text>
</g>
<!-- ToolsModule&#45;&gt;SharedModule -->
<g id="edge21" class="edge">
<title>ToolsModule&#45;&gt;SharedModule</title>
<path fill="none" stroke="#000000" d="M1638,-237.9891C1638,-215.5148 1638,-180 1638,-180 1638,-180 1189.6341,-180 1189.6341,-180"/>
<polygon fill="#000000" stroke="#000000" points="1189.6342,-176.5001 1179.6341,-180 1189.6341,-183.5001 1189.6342,-176.5001"/>
</g>
<!-- HeaderEffects -->
<g id="node25" class="node">
<title>HeaderEffects</title>
<ellipse fill="#fdb462" stroke="#000000" cx="1091" cy="-104" rx="66.0069" ry="18"/>
<text text-anchor="middle" x="1091" y="-99.8" font-family="Times,serif" font-size="14.00" fill="#000000">HeaderEffects</text>
</g>
<!-- HeaderEffects&#45;&gt;StoresModule -->
<g id="edge25" class="edge">
<title>HeaderEffects&#45;&gt;StoresModule</title>
<path fill="none" stroke="#000000" d="M1044.0092,-116.8924C1044.0092,-116.8924 1044.0092,-151.9077 1044.0092,-151.9077"/>
<polygon fill="#000000" stroke="#000000" points="1040.5093,-151.9077 1044.0092,-161.9077 1047.5093,-151.9078 1040.5093,-151.9077"/>
</g>
<!-- LayoutEffects -->
<g id="node26" class="node">
<title>LayoutEffects</title>
<ellipse fill="#fdb462" stroke="#000000" cx="941" cy="-104" rx="65.9677" ry="18"/>
<text text-anchor="middle" x="941" y="-99.8" font-family="Times,serif" font-size="14.00" fill="#000000">LayoutEffects</text>
</g>
<!-- LayoutEffects&#45;&gt;StoresModule -->
<g id="edge26" class="edge">
<title>LayoutEffects&#45;&gt;StoresModule</title>
<path fill="none" stroke="#000000" d="M987.731,-116.8924C987.731,-116.8924 987.731,-151.9077 987.731,-151.9077"/>
<polygon fill="#000000" stroke="#000000" points="984.2311,-151.9077 987.731,-161.9077 991.2311,-151.9078 984.2311,-151.9077"/>
</g>
</g>
</svg>
