<?xml version="1.0" encoding="UTF-8" standalone="no"?>
<!DOCTYPE svg PUBLIC "-//W3C//DTD SVG 1.1//EN"
 "http://www.w3.org/Graphics/SVG/1.1/DTD/svg11.dtd">
<!-- Generated by graphviz version 2.40.1 (20161225.0304)
 -->
<!-- Title: dependencies Pages: 1 -->
<svg width="2923pt" height="366pt"
 viewBox="0.00 0.00 2923.00 366.00" xmlns="http://www.w3.org/2000/svg" xmlns:xlink="http://www.w3.org/1999/xlink">
<g id="graph0" class="graph" transform="scale(1 1) rotate(0) translate(4 362)">
<title>dependencies</title>
<polygon fill="#ffffff" stroke="transparent" points="-4,4 -4,-362 2919,-362 2919,4 -4,4"/>
<text text-anchor="start" x="1436.5091" y="-42.4" font-family="sans-serif" font-weight="bold" font-size="14.00" fill="#000000">Legend</text>
<polygon fill="#ffffb3" stroke="transparent" points="1223.5,-10 1223.5,-30 1243.5,-30 1243.5,-10 1223.5,-10"/>
<text text-anchor="start" x="1247.129" y="-15.4" font-family="sans-serif" font-size="14.00" fill="#000000"> &#160;Declarations</text>
<polygon fill="#8dd3c7" stroke="transparent" points="1336.5,-10 1336.5,-30 1356.5,-30 1356.5,-10 1336.5,-10"/>
<text text-anchor="start" x="1360.2251" y="-15.4" font-family="sans-serif" font-size="14.00" fill="#000000"> &#160;Module</text>
<polygon fill="#80b1d3" stroke="transparent" points="1422.5,-10 1422.5,-30 1442.5,-30 1442.5,-10 1422.5,-10"/>
<text text-anchor="start" x="1446.2812" y="-15.4" font-family="sans-serif" font-size="14.00" fill="#000000"> &#160;Bootstrap</text>
<polygon fill="#fdb462" stroke="transparent" points="1519.5,-10 1519.5,-30 1539.5,-30 1539.5,-10 1519.5,-10"/>
<text text-anchor="start" x="1543.1732" y="-15.4" font-family="sans-serif" font-size="14.00" fill="#000000"> &#160;Providers</text>
<polygon fill="#fb8072" stroke="transparent" points="1615.5,-10 1615.5,-30 1635.5,-30 1635.5,-10 1615.5,-10"/>
<text text-anchor="start" x="1639.2258" y="-15.4" font-family="sans-serif" font-size="14.00" fill="#000000"> &#160;Exports</text>
<g id="clust1" class="cluster">
<title>cluster_AboutPageModule</title>
<polygon fill="none" stroke="#000000" stroke-dasharray="1,5" points="8,-70 8,-206 184,-206 184,-70 8,-70"/>
</g>
<g id="clust2" class="cluster">
<title>cluster_AboutPageModule_declarations</title>
<polygon fill="none" stroke="#000000" points="16,-78 16,-130 176,-130 176,-78 16,-78"/>
</g>
<g id="clust8" class="cluster">
<title>cluster_AppModule</title>
<polygon fill="none" stroke="#000000" stroke-dasharray="1,5" points="192,-146 192,-350 1282,-350 1282,-146 192,-146"/>
</g>
<g id="clust9" class="cluster">
<title>cluster_AppModule_declarations</title>
<polygon fill="none" stroke="#000000" points="512,-154 512,-206 634,-206 634,-154 512,-154"/>
</g>
<g id="clust11" class="cluster">
<title>cluster_AppModule_imports</title>
<polygon fill="none" stroke="#000000" points="642,-154 642,-206 1274,-206 1274,-154 642,-154"/>
</g>
<g id="clust13" class="cluster">
<title>cluster_AppModule_bootstrap</title>
<polygon fill="none" stroke="#000000" points="648,-290 648,-342 772,-342 772,-290 648,-290"/>
</g>
<g id="clust14" class="cluster">
<title>cluster_AppModule_providers</title>
<polygon fill="none" stroke="#000000" points="200,-154 200,-206 504,-206 504,-154 200,-154"/>
</g>
<g id="clust21" class="cluster">
<title>cluster_ComponentsModule</title>
<polygon fill="none" stroke="#000000" stroke-dasharray="1,5" points="2042,-146 2042,-350 2907,-350 2907,-146 2042,-146"/>
</g>
<g id="clust22" class="cluster">
<title>cluster_ComponentsModule_declarations</title>
<polygon fill="none" stroke="#000000" points="2050,-154 2050,-206 2899,-206 2899,-154 2050,-154"/>
</g>
<g id="clust28" class="cluster">
<title>cluster_ComponentsModule_exports</title>
<polygon fill="none" stroke="#000000" points="2198,-290 2198,-342 2592,-342 2592,-290 2198,-290"/>
</g>
<g id="clust31" class="cluster">
<title>cluster_HomePageModule</title>
<polygon fill="none" stroke="#000000" stroke-dasharray="1,5" points="553,-70 553,-138 727,-138 727,-70 553,-70"/>
</g>
<g id="clust32" class="cluster">
<title>cluster_HomePageModule_declarations</title>
<polygon fill="none" stroke="#000000" points="561,-78 561,-130 719,-130 719,-78 561,-78"/>
</g>
<g id="clust44" class="cluster">
<title>cluster_NotFoundPageModule</title>
<polygon fill="none" stroke="#000000" stroke-dasharray="1,5" points="735,-70 735,-138 933,-138 933,-70 735,-70"/>
</g>
<g id="clust45" class="cluster">
<title>cluster_NotFoundPageModule_declarations</title>
<polygon fill="none" stroke="#000000" points="743,-78 743,-130 925,-130 925,-78 743,-78"/>
</g>
<g id="clust57" class="cluster">
<title>cluster_SharedModule</title>
<polygon fill="none" stroke="#000000" stroke-dasharray="1,5" points="1290,-214 1290,-282 2034,-282 2034,-214 1290,-214"/>
</g>
<g id="clust59" class="cluster">
<title>cluster_SharedModule_imports</title>
<polygon fill="none" stroke="#000000" points="1671,-222 1671,-274 2026,-274 2026,-222 1671,-222"/>
</g>
<g id="clust60" class="cluster">
<title>cluster_SharedModule_exports</title>
<polygon fill="none" stroke="#000000" points="1298,-222 1298,-274 1663,-274 1663,-222 1298,-222"/>
</g>
<g id="clust63" class="cluster">
<title>cluster_StoresModule</title>
<polygon fill="none" stroke="#000000" stroke-dasharray="1,5" points="941,-70 941,-138 1255,-138 1255,-70 941,-70"/>
</g>
<g id="clust68" class="cluster">
<title>cluster_StoresModule_providers</title>
<polygon fill="none" stroke="#000000" points="949,-78 949,-130 1247,-130 1247,-78 949,-78"/>
</g>
<!-- AboutPageComponent -->
<g id="node1" class="node">
<title>AboutPageComponent</title>
<polygon fill="#ffffb3" stroke="#000000" points="167.5421,-122 24.4579,-122 24.4579,-86 167.5421,-86 167.5421,-122"/>
<text text-anchor="middle" x="96" y="-99.8" font-family="Times,serif" font-size="14.00" fill="#000000">AboutPageComponent</text>
</g>
<!-- AboutPageModule -->
<g id="node2" class="node">
<title>AboutPageModule</title>
<polygon fill="#8dd3c7" stroke="#000000" points="165.759,-198 162.759,-202 141.759,-202 138.759,-198 44.241,-198 44.241,-162 165.759,-162 165.759,-198"/>
<text text-anchor="middle" x="105" y="-175.8" font-family="Times,serif" font-size="14.00" fill="#000000">AboutPageModule</text>
</g>
<!-- AboutPageComponent&#45;&gt;AboutPageModule -->
<g id="edge1" class="edge">
<title>AboutPageComponent&#45;&gt;AboutPageModule</title>
<path fill="none" stroke="#000000" d="M105,-122.0109C105,-122.0109 105,-151.855 105,-151.855"/>
<polygon fill="#000000" stroke="#000000" points="101.5001,-151.8549 105,-161.855 108.5001,-151.855 101.5001,-151.8549"/>
</g>
<!-- AppModule -->
<g id="node4" class="node">
<title>AppModule</title>
<polygon fill="#8dd3c7" stroke="#000000" points="751.6571,-266 748.6571,-270 727.6571,-270 724.6571,-266 668.3429,-266 668.3429,-230 751.6571,-230 751.6571,-266"/>
<text text-anchor="middle" x="710" y="-243.8" font-family="Times,serif" font-size="14.00" fill="#000000">AppModule</text>
</g>
<!-- AboutPageModule&#45;&gt;AppModule -->
<g id="edge3" class="edge">
<title>AboutPageModule&#45;&gt;AppModule</title>
<path fill="none" stroke="#000000" d="M105,-198.3228C105,-221.6602 105,-259 105,-259 105,-259 657.9379,-259 657.9379,-259"/>
<polygon fill="#000000" stroke="#000000" points="657.9379,-262.5001 667.9379,-259 657.9379,-255.5001 657.9379,-262.5001"/>
</g>
<!-- AppComponent -->
<g id="node3" class="node">
<title>AppComponent</title>
<polygon fill="#ffffb3" stroke="#000000" points="625.9399,-198 520.0601,-198 520.0601,-162 625.9399,-162 625.9399,-198"/>
<text text-anchor="middle" x="573" y="-175.8" font-family="Times,serif" font-size="14.00" fill="#000000">AppComponent</text>
</g>
<!-- AppComponent&#45;&gt;AppModule -->
<g id="edge2" class="edge">
<title>AppComponent&#45;&gt;AppModule</title>
<path fill="none" stroke="#000000" d="M573,-198.0336C573,-215.0597 573,-238 573,-238 573,-238 658.1511,-238 658.1511,-238"/>
<polygon fill="#000000" stroke="#000000" points="658.1511,-241.5001 668.1511,-238 658.151,-234.5001 658.1511,-241.5001"/>
</g>
<!-- AppComponent  -->
<g id="node10" class="node">
<title>AppComponent </title>
<polygon fill="#80b1d3" stroke="#000000" points="764.439,-334 655.561,-334 655.561,-298 764.439,-298 764.439,-334"/>
<text text-anchor="middle" x="710" y="-311.8" font-family="Times,serif" font-size="14.00" fill="#000000">AppComponent </text>
</g>
<!-- AppModule&#45;&gt;AppComponent  -->
<g id="edge9" class="edge">
<title>AppModule&#45;&gt;AppComponent </title>
<path fill="none" stroke="#000000" stroke-dasharray="1,5" d="M710,-266.2228C710,-266.2228 710,-287.7269 710,-287.7269"/>
<polygon fill="#000000" stroke="#000000" points="706.5001,-287.7269 710,-297.7269 713.5001,-287.727 706.5001,-287.7269"/>
</g>
<!-- ArchModule -->
<g id="node5" class="node">
<title>ArchModule</title>
<polygon fill="#8dd3c7" stroke="#000000" points="1149.5328,-198 1146.5328,-202 1125.5328,-202 1122.5328,-198 1062.4672,-198 1062.4672,-162 1149.5328,-162 1149.5328,-198"/>
<text text-anchor="middle" x="1106" y="-175.8" font-family="Times,serif" font-size="14.00" fill="#000000">ArchModule</text>
</g>
<!-- ArchModule&#45;&gt;AppModule -->
<g id="edge4" class="edge">
<title>ArchModule&#45;&gt;AppModule</title>
<path fill="none" stroke="#000000" d="M1106,-198.1686C1106,-219.498 1106,-252 1106,-252 1106,-252 762.004,-252 762.004,-252"/>
<polygon fill="#000000" stroke="#000000" points="762.0041,-248.5001 752.004,-252 762.004,-255.5001 762.0041,-248.5001"/>
</g>
<!-- HomePageModule -->
<g id="node6" class="node">
<title>HomePageModule</title>
<polygon fill="#8dd3c7" stroke="#000000" points="770.4734,-198 767.4734,-202 746.4734,-202 743.4734,-198 649.5266,-198 649.5266,-162 770.4734,-162 770.4734,-198"/>
<text text-anchor="middle" x="710" y="-175.8" font-family="Times,serif" font-size="14.00" fill="#000000">HomePageModule</text>
</g>
<!-- HomePageModule&#45;&gt;AppModule -->
<g id="edge5" class="edge">
<title>HomePageModule&#45;&gt;AppModule</title>
<path fill="none" stroke="#000000" d="M710,-198.2228C710,-198.2228 710,-219.7269 710,-219.7269"/>
<polygon fill="#000000" stroke="#000000" points="706.5001,-219.7269 710,-229.7269 713.5001,-219.727 706.5001,-219.7269"/>
</g>
<!-- NotFoundPageModule -->
<g id="node7" class="node">
<title>NotFoundPageModule</title>
<polygon fill="#8dd3c7" stroke="#000000" points="931.5421,-198 928.5421,-202 907.5421,-202 904.5421,-198 788.4579,-198 788.4579,-162 931.5421,-162 931.5421,-198"/>
<text text-anchor="middle" x="860" y="-175.8" font-family="Times,serif" font-size="14.00" fill="#000000">NotFoundPageModule</text>
</g>
<!-- NotFoundPageModule&#45;&gt;AppModule -->
<g id="edge6" class="edge">
<title>NotFoundPageModule&#45;&gt;AppModule</title>
<path fill="none" stroke="#000000" d="M860,-198.0336C860,-215.0597 860,-238 860,-238 860,-238 761.7834,-238 761.7834,-238"/>
<polygon fill="#000000" stroke="#000000" points="761.7834,-234.5001 751.7834,-238 761.7833,-241.5001 761.7834,-234.5001"/>
</g>
<!-- SharedModule -->
<g id="node8" class="node">
<title>SharedModule</title>
<polygon fill="#8dd3c7" stroke="#000000" points="1266.4231,-198 1263.4231,-202 1242.4231,-202 1239.4231,-198 1167.5769,-198 1167.5769,-162 1266.4231,-162 1266.4231,-198"/>
<text text-anchor="middle" x="1217" y="-175.8" font-family="Times,serif" font-size="14.00" fill="#000000">SharedModule</text>
</g>
<!-- SharedModule&#45;&gt;AppModule -->
<g id="edge7" class="edge">
<title>SharedModule&#45;&gt;AppModule</title>
<path fill="none" stroke="#000000" d="M1217,-198.3228C1217,-221.6602 1217,-259 1217,-259 1217,-259 761.9213,-259 761.9213,-259"/>
<polygon fill="#000000" stroke="#000000" points="761.9213,-255.5001 751.9213,-259 761.9212,-262.5001 761.9213,-255.5001"/>
</g>
<!-- ComponentsModule -->
<g id="node17" class="node">
<title>ComponentsModule</title>
<polygon fill="#8dd3c7" stroke="#000000" points="2460.3272,-266 2457.3272,-270 2436.3272,-270 2433.3272,-266 2329.6728,-266 2329.6728,-230 2460.3272,-230 2460.3272,-266"/>
<text text-anchor="middle" x="2395" y="-243.8" font-family="Times,serif" font-size="14.00" fill="#000000">ComponentsModule</text>
</g>
<!-- SharedModule&#45;&gt;ComponentsModule -->
<g id="edge16" class="edge">
<title>SharedModule&#45;&gt;ComponentsModule</title>
<path fill="none" stroke="#000000" d="M1266.5118,-167C1444.0252,-167 2038.0572,-167 2038.0572,-167 2038.0572,-167 2038.0572,-254 2038.0572,-254 2038.0572,-254 2319.5312,-254 2319.5312,-254"/>
<polygon fill="#000000" stroke="#000000" points="2319.5312,-257.5001 2329.5312,-254 2319.5311,-250.5001 2319.5312,-257.5001"/>
</g>
<!-- MaterialModule  -->
<g id="node25" class="node">
<title>MaterialModule </title>
<polygon fill="#fb8072" stroke="#000000" points="1655.4716,-266 1544.5284,-266 1544.5284,-230 1655.4716,-230 1655.4716,-266"/>
<text text-anchor="middle" x="1600" y="-243.8" font-family="Times,serif" font-size="14.00" fill="#000000">MaterialModule </text>
</g>
<!-- SharedModule&#45;&gt;MaterialModule  -->
<g id="edge24" class="edge">
<title>SharedModule&#45;&gt;MaterialModule </title>
<path fill="none" stroke="#000000" stroke-dasharray="5,2" d="M1266.2865,-185C1369.7287,-185 1600,-185 1600,-185 1600,-185 1600,-219.7778 1600,-219.7778"/>
<polygon fill="#000000" stroke="#000000" points="1596.5001,-219.7778 1600,-229.7778 1603.5001,-219.7778 1596.5001,-219.7778"/>
</g>
<!-- RoutingModule  -->
<g id="node26" class="node">
<title>RoutingModule </title>
<polygon fill="#fb8072" stroke="#000000" points="1527.1677,-266 1418.8323,-266 1418.8323,-230 1527.1677,-230 1527.1677,-266"/>
<text text-anchor="middle" x="1473" y="-243.8" font-family="Times,serif" font-size="14.00" fill="#000000">RoutingModule </text>
</g>
<!-- SharedModule&#45;&gt;RoutingModule  -->
<g id="edge25" class="edge">
<title>SharedModule&#45;&gt;RoutingModule </title>
<path fill="none" stroke="#000000" stroke-dasharray="5,2" d="M1266.3594,-189C1340.75,-189 1473,-189 1473,-189 1473,-189 1473,-219.9775 1473,-219.9775"/>
<polygon fill="#000000" stroke="#000000" points="1469.5001,-219.9774 1473,-229.9775 1476.5001,-219.9775 1469.5001,-219.9774"/>
</g>
<!-- ToolsModule  -->
<g id="node27" class="node">
<title>ToolsModule </title>
<polygon fill="#fb8072" stroke="#000000" points="1400.4376,-266 1305.5624,-266 1305.5624,-230 1400.4376,-230 1400.4376,-266"/>
<text text-anchor="middle" x="1353" y="-243.8" font-family="Times,serif" font-size="14.00" fill="#000000">ToolsModule </text>
</g>
<!-- SharedModule&#45;&gt;ToolsModule  -->
<g id="edge26" class="edge">
<title>SharedModule&#45;&gt;ToolsModule </title>
<path fill="none" stroke="#000000" stroke-dasharray="5,2" d="M1266.4838,-194C1305.3696,-194 1353,-194 1353,-194 1353,-194 1353,-219.7181 1353,-219.7181"/>
<polygon fill="#000000" stroke="#000000" points="1349.5001,-219.718 1353,-229.7181 1356.5001,-219.7181 1349.5001,-219.718"/>
</g>
<!-- StoresModule -->
<g id="node9" class="node">
<title>StoresModule</title>
<polygon fill="#8dd3c7" stroke="#000000" points="1044.0439,-198 1041.0439,-202 1020.0439,-202 1017.0439,-198 949.9561,-198 949.9561,-162 1044.0439,-162 1044.0439,-198"/>
<text text-anchor="middle" x="997" y="-175.8" font-family="Times,serif" font-size="14.00" fill="#000000">StoresModule</text>
</g>
<!-- StoresModule&#45;&gt;AppModule -->
<g id="edge8" class="edge">
<title>StoresModule&#45;&gt;AppModule</title>
<path fill="none" stroke="#000000" d="M997,-198.1061C997,-217.3391 997,-245 997,-245 997,-245 761.7323,-245 761.7323,-245"/>
<polygon fill="#000000" stroke="#000000" points="761.7323,-241.5001 751.7323,-245 761.7322,-248.5001 761.7323,-241.5001"/>
</g>
<!-- HeaderService -->
<g id="node11" class="node">
<title>HeaderService</title>
<ellipse fill="#fdb462" stroke="#000000" cx="428" cy="-180" rx="67.7336" ry="18"/>
<text text-anchor="middle" x="428" y="-175.8" font-family="Times,serif" font-size="14.00" fill="#000000">HeaderService</text>
</g>
<!-- HeaderService&#45;&gt;AppModule -->
<g id="edge10" class="edge">
<title>HeaderService&#45;&gt;AppModule</title>
<path fill="none" stroke="#000000" d="M428,-198.1061C428,-217.3391 428,-245 428,-245 428,-245 658.0863,-245 658.0863,-245"/>
<polygon fill="#000000" stroke="#000000" points="658.0863,-248.5001 668.0863,-245 658.0862,-241.5001 658.0863,-248.5001"/>
</g>
<!-- LayoutService -->
<g id="node12" class="node">
<title>LayoutService</title>
<ellipse fill="#fdb462" stroke="#000000" cx="275" cy="-180" rx="67.1946" ry="18"/>
<text text-anchor="middle" x="275" y="-175.8" font-family="Times,serif" font-size="14.00" fill="#000000">LayoutService</text>
</g>
<!-- LayoutService&#45;&gt;AppModule -->
<g id="edge11" class="edge">
<title>LayoutService&#45;&gt;AppModule</title>
<path fill="none" stroke="#000000" d="M275,-198.1686C275,-219.498 275,-252 275,-252 275,-252 658.2904,-252 658.2904,-252"/>
<polygon fill="#000000" stroke="#000000" points="658.2904,-255.5001 668.2904,-252 658.2903,-248.5001 658.2904,-255.5001"/>
</g>
<!-- HeaderContainerComponent -->
<g id="node13" class="node">
<title>HeaderContainerComponent</title>
<polygon fill="#ffffb3" stroke="#000000" points="2891.451,-198 2714.549,-198 2714.549,-162 2891.451,-162 2891.451,-198"/>
<text text-anchor="middle" x="2803" y="-175.8" font-family="Times,serif" font-size="14.00" fill="#000000">HeaderContainerComponent</text>
</g>
<!-- HeaderContainerComponent&#45;&gt;ComponentsModule -->
<g id="edge12" class="edge">
<title>HeaderContainerComponent&#45;&gt;ComponentsModule</title>
<path fill="none" stroke="#000000" d="M2803,-198.2921C2803,-220.2057 2803,-254 2803,-254 2803,-254 2470.5523,-254 2470.5523,-254"/>
<polygon fill="#000000" stroke="#000000" points="2470.5523,-250.5001 2460.5523,-254 2470.5522,-257.5001 2470.5523,-250.5001"/>
</g>
<!-- LayoutContainerComponent -->
<g id="node14" class="node">
<title>LayoutContainerComponent</title>
<polygon fill="#ffffb3" stroke="#000000" points="2696.1979,-198 2519.8021,-198 2519.8021,-162 2696.1979,-162 2696.1979,-198"/>
<text text-anchor="middle" x="2608" y="-175.8" font-family="Times,serif" font-size="14.00" fill="#000000">LayoutContainerComponent</text>
</g>
<!-- LayoutContainerComponent&#45;&gt;ComponentsModule -->
<g id="edge13" class="edge">
<title>LayoutContainerComponent&#45;&gt;ComponentsModule</title>
<path fill="none" stroke="#000000" d="M2552.0633,-198.2667C2552.0633,-216.5552 2552.0633,-242 2552.0633,-242 2552.0633,-242 2470.2445,-242 2470.2445,-242"/>
<polygon fill="#000000" stroke="#000000" points="2470.2445,-238.5001 2460.2445,-242 2470.2445,-245.5001 2470.2445,-238.5001"/>
</g>
<!-- SimpleHeaderPresenterComponent -->
<g id="node15" class="node">
<title>SimpleHeaderPresenterComponent</title>
<polygon fill="#ffffb3" stroke="#000000" points="2501.9958,-198 2288.0042,-198 2288.0042,-162 2501.9958,-162 2501.9958,-198"/>
<text text-anchor="middle" x="2395" y="-175.8" font-family="Times,serif" font-size="14.00" fill="#000000">SimpleHeaderPresenterComponent</text>
</g>
<!-- SimpleHeaderPresenterComponent&#45;&gt;ComponentsModule -->
<g id="edge14" class="edge">
<title>SimpleHeaderPresenterComponent&#45;&gt;ComponentsModule</title>
<path fill="none" stroke="#000000" d="M2395,-198.2228C2395,-198.2228 2395,-219.7269 2395,-219.7269"/>
<polygon fill="#000000" stroke="#000000" points="2391.5001,-219.7269 2395,-229.7269 2398.5001,-219.727 2391.5001,-219.7269"/>
</g>
<!-- SimpleLayoutPresenterComponent -->
<g id="node16" class="node">
<title>SimpleLayoutPresenterComponent</title>
<polygon fill="#ffffb3" stroke="#000000" points="2270.2422,-198 2057.7578,-198 2057.7578,-162 2270.2422,-162 2270.2422,-198"/>
<text text-anchor="middle" x="2164" y="-175.8" font-family="Times,serif" font-size="14.00" fill="#000000">SimpleLayoutPresenterComponent</text>
</g>
<!-- SimpleLayoutPresenterComponent&#45;&gt;ComponentsModule -->
<g id="edge15" class="edge">
<title>SimpleLayoutPresenterComponent&#45;&gt;ComponentsModule</title>
<path fill="none" stroke="#000000" d="M2238.2611,-198.2667C2238.2611,-216.5552 2238.2611,-242 2238.2611,-242 2238.2611,-242 2319.4367,-242 2319.4367,-242"/>
<polygon fill="#000000" stroke="#000000" points="2319.4368,-245.5001 2329.4367,-242 2319.4367,-238.5001 2319.4368,-245.5001"/>
</g>
<!-- HeaderContainerComponent  -->
<g id="node18" class="node">
<title>HeaderContainerComponent </title>
<polygon fill="#fb8072" stroke="#000000" points="2584.4516,-334 2403.5484,-334 2403.5484,-298 2584.4516,-298 2584.4516,-334"/>
<text text-anchor="middle" x="2494" y="-311.8" font-family="Times,serif" font-size="14.00" fill="#000000">HeaderContainerComponent </text>
</g>
<!-- ComponentsModule&#45;&gt;HeaderContainerComponent  -->
<g id="edge17" class="edge">
<title>ComponentsModule&#45;&gt;HeaderContainerComponent </title>
<path fill="none" stroke="#000000" stroke-dasharray="5,2" d="M2431.969,-266.2228C2431.969,-266.2228 2431.969,-287.7269 2431.969,-287.7269"/>
<polygon fill="#000000" stroke="#000000" points="2428.469,-287.7269 2431.969,-297.7269 2435.469,-287.727 2428.469,-287.7269"/>
</g>
<!-- LayoutContainerComponent  -->
<g id="node19" class="node">
<title>LayoutContainerComponent </title>
<polygon fill="#fb8072" stroke="#000000" points="2385.6981,-334 2206.3019,-334 2206.3019,-298 2385.6981,-298 2385.6981,-334"/>
<text text-anchor="middle" x="2296" y="-311.8" font-family="Times,serif" font-size="14.00" fill="#000000">LayoutContainerComponent </text>
</g>
<!-- ComponentsModule&#45;&gt;LayoutContainerComponent  -->
<g id="edge18" class="edge">
<title>ComponentsModule&#45;&gt;LayoutContainerComponent </title>
<path fill="none" stroke="#000000" stroke-dasharray="5,2" d="M2357.8427,-266.2228C2357.8427,-266.2228 2357.8427,-287.7269 2357.8427,-287.7269"/>
<polygon fill="#000000" stroke="#000000" points="2354.3428,-287.7269 2357.8427,-297.7269 2361.3428,-287.727 2354.3428,-287.7269"/>
</g>
<!-- HomePageComponent -->
<g id="node20" class="node">
<title>HomePageComponent</title>
<polygon fill="#ffffb3" stroke="#000000" points="711.2562,-122 568.7438,-122 568.7438,-86 711.2562,-86 711.2562,-122"/>
<text text-anchor="middle" x="640" y="-99.8" font-family="Times,serif" font-size="14.00" fill="#000000">HomePageComponent</text>
</g>
<!-- HomePageComponent&#45;&gt;HomePageModule -->
<g id="edge19" class="edge">
<title>HomePageComponent&#45;&gt;HomePageModule</title>
<path fill="none" stroke="#000000" d="M680.4457,-122.0109C680.4457,-122.0109 680.4457,-151.855 680.4457,-151.855"/>
<polygon fill="#000000" stroke="#000000" points="676.9457,-151.8549 680.4457,-161.855 683.9457,-151.855 676.9457,-151.8549"/>
</g>
<!-- NotFoundPageComponent -->
<g id="node21" class="node">
<title>NotFoundPageComponent</title>
<polygon fill="#ffffb3" stroke="#000000" points="916.8243,-122 751.1757,-122 751.1757,-86 916.8243,-86 916.8243,-122"/>
<text text-anchor="middle" x="834" y="-99.8" font-family="Times,serif" font-size="14.00" fill="#000000">NotFoundPageComponent</text>
</g>
<!-- NotFoundPageComponent&#45;&gt;NotFoundPageModule -->
<g id="edge20" class="edge">
<title>NotFoundPageComponent&#45;&gt;NotFoundPageModule</title>
<path fill="none" stroke="#000000" d="M852.4457,-122.0109C852.4457,-122.0109 852.4457,-151.855 852.4457,-151.855"/>
<polygon fill="#000000" stroke="#000000" points="848.9457,-151.8549 852.4457,-161.855 855.9457,-151.855 848.9457,-151.8549"/>
</g>
<!-- MaterialModule -->
<g id="node22" class="node">
<title>MaterialModule</title>
<polygon fill="#8dd3c7" stroke="#000000" points="2018.4706,-266 2015.4706,-270 1994.4706,-270 1991.4706,-266 1911.5294,-266 1911.5294,-230 2018.4706,-230 2018.4706,-266"/>
<text text-anchor="middle" x="1965" y="-243.8" font-family="Times,serif" font-size="14.00" fill="#000000">MaterialModule</text>
</g>
<!-- MaterialModule&#45;&gt;SharedModule -->
<g id="edge21" class="edge">
<title>MaterialModule&#45;&gt;SharedModule</title>
<path fill="none" stroke="#000000" d="M1965,-229.7521C1965,-206.9821 1965,-171 1965,-171 1965,-171 1276.3676,-171 1276.3676,-171"/>
<polygon fill="#000000" stroke="#000000" points="1276.3677,-167.5001 1266.3676,-171 1276.3676,-174.5001 1276.3677,-167.5001"/>
</g>
<!-- RoutingModule -->
<g id="node23" class="node">
<title>RoutingModule</title>
<polygon fill="#8dd3c7" stroke="#000000" points="1893.1681,-266 1890.1681,-270 1869.1681,-270 1866.1681,-266 1788.8319,-266 1788.8319,-230 1893.1681,-230 1893.1681,-266"/>
<text text-anchor="middle" x="1841" y="-243.8" font-family="Times,serif" font-size="14.00" fill="#000000">RoutingModule</text>
</g>
<!-- RoutingModule&#45;&gt;SharedModule -->
<g id="edge22" class="edge">
<title>RoutingModule&#45;&gt;SharedModule</title>
<path fill="none" stroke="#000000" d="M1841,-229.8314C1841,-208.502 1841,-176 1841,-176 1841,-176 1276.2247,-176 1276.2247,-176"/>
<polygon fill="#000000" stroke="#000000" points="1276.2248,-172.5001 1266.2247,-176 1276.2247,-179.5001 1276.2248,-172.5001"/>
</g>
<!-- ToolsModule -->
<g id="node24" class="node">
<title>ToolsModule</title>
<polygon fill="#8dd3c7" stroke="#000000" points="1770.9387,-266 1767.9387,-270 1746.9387,-270 1743.9387,-266 1679.0613,-266 1679.0613,-230 1770.9387,-230 1770.9387,-266"/>
<text text-anchor="middle" x="1725" y="-243.8" font-family="Times,serif" font-size="14.00" fill="#000000">ToolsModule</text>
</g>
<!-- ToolsModule&#45;&gt;SharedModule -->
<g id="edge23" class="edge">
<title>ToolsModule&#45;&gt;SharedModule</title>
<path fill="none" stroke="#000000" d="M1725,-229.7772C1725,-209.6348 1725,-180 1725,-180 1725,-180 1276.6341,-180 1276.6341,-180"/>
<polygon fill="#000000" stroke="#000000" points="1276.6342,-176.5001 1266.6341,-180 1276.6341,-183.5001 1276.6342,-176.5001"/>
</g>
<!-- HeaderEffects -->
<g id="node28" class="node">
<title>HeaderEffects</title>
<ellipse fill="#fdb462" stroke="#000000" cx="1173" cy="-104" rx="66.0069" ry="18"/>
<text text-anchor="middle" x="1173" y="-99.8" font-family="Times,serif" font-size="14.00" fill="#000000">HeaderEffects</text>
</g>
<!-- HeaderEffects&#45;&gt;StoresModule -->
<g id="edge27" class="edge">
<title>HeaderEffects&#45;&gt;StoresModule</title>
<path fill="none" stroke="#000000" d="M1128.2564,-117.2906C1128.2564,-128.2487 1128.2564,-142 1128.2564,-142 1128.2564,-142 1015.2698,-142 1015.2698,-142 1015.2698,-142 1015.2698,-151.8903 1015.2698,-151.8903"/>
<polygon fill="#000000" stroke="#000000" points="1011.7699,-151.8903 1015.2698,-161.8903 1018.7699,-151.8904 1011.7699,-151.8903"/>
</g>
<!-- LayoutEffects -->
<g id="node29" class="node">
<title>LayoutEffects</title>
<ellipse fill="#fdb462" stroke="#000000" cx="1023" cy="-104" rx="65.9677" ry="18"/>
<text text-anchor="middle" x="1023" y="-99.8" font-family="Times,serif" font-size="14.00" fill="#000000">LayoutEffects</text>
</g>
<!-- LayoutEffects&#45;&gt;StoresModule -->
<g id="edge28" class="edge">
<title>LayoutEffects&#45;&gt;StoresModule</title>
<path fill="none" stroke="#000000" d="M986.2682,-119.0152C986.2682,-119.0152 986.2682,-151.7991 986.2682,-151.7991"/>
<polygon fill="#000000" stroke="#000000" points="982.7683,-151.7991 986.2682,-161.7991 989.7683,-151.7992 982.7683,-151.7991"/>
</g>
</g>
</svg>
